<svg width="135" height="28" viewBox="0 0 135 28" fill="none" xmlns="http://www.w3.org/2000/svg">
<g clip-path="url(#clip0_782_464)">
<path d="M33.8605 5.20927H41.1969C42.975 5.16116 44.7399 5.52752 46.3519 6.27935C47.747 6.95154 48.9029 8.0347 49.6642 9.38323C50.4615 10.8616 50.8581 12.5228 50.8146 14.2018C50.8602 15.8895 50.4676 17.5601 49.675 19.0508C48.9201 20.4004 47.7672 21.4843 46.3736 22.1547C44.7548 22.9071 42.9835 23.2734 41.1991 23.2248H33.8605V5.20927ZM40.7346 19.3178C41.4424 19.3726 42.1541 19.2857 42.828 19.0621C43.5018 18.8385 44.1243 18.4827 44.6589 18.0155C45.128 17.482 45.485 16.8598 45.7087 16.1856C45.9324 15.5114 46.0183 14.7992 45.9612 14.0911C46.0212 13.3829 45.9367 12.6699 45.7128 11.9953C45.4889 11.3207 45.1304 10.6986 44.6589 10.1668C44.1207 9.70712 43.4969 9.35846 42.8234 9.14091C42.1499 8.92336 41.44 8.84121 40.7346 8.8992H38.4186V19.3178H40.7346Z" fill="#273339"/>
<path d="M64.6822 17.7984H56.8682C56.9515 18.481 57.2876 19.1075 57.8102 19.5544C58.3901 19.9469 59.0847 20.1341 59.7832 20.0862C61.0481 20.0696 62.2784 19.6708 63.3126 18.9423L64.4651 21.9007C63.7767 22.3896 63.0095 22.7567 62.1969 22.986C61.3402 23.2451 60.4504 23.3781 59.5553 23.381C58.265 23.4139 56.9849 23.1441 55.8177 22.5931C54.7996 22.0976 53.954 21.3073 53.391 20.3249C52.7994 19.2679 52.5011 18.0718 52.5271 16.8607C52.506 15.6872 52.7807 14.5272 53.3259 13.4877C53.8375 12.5187 54.6144 11.7153 55.5659 11.1717C56.5578 10.6102 57.682 10.3246 58.8217 10.3448C59.6114 10.314 60.3985 10.4531 61.1298 10.7527C61.8611 11.0522 62.5196 11.5053 63.0608 12.0812C64.1456 13.3771 64.7219 15.0235 64.6822 16.7131V17.7984ZM56.8682 15.6279H60.8186C60.7202 14.136 60.0625 13.39 58.8456 13.39C57.6286 13.39 56.9695 14.136 56.8682 15.6279Z" fill="#273339"/>
<path d="M75.0096 10.6357H79.4701L73.8462 23.2249H70.0825L64.5476 10.6357H69.3228L72.0946 17.7312L75.0096 10.6357Z" fill="#273339"/>
<path d="M87.4729 10.8527H90.2946V14.1086H87.2558V23.2248H82.6977V14.1086H80.5271V10.8527H82.8518C82.8435 10.1194 82.9945 9.39304 83.2943 8.72375C83.5941 8.05447 84.0355 7.45821 84.5882 6.97615C86.0062 5.98808 87.6983 5.46959 89.4264 5.49367L90.9935 5.396L91.254 8.62359L90.0471 8.67134C89.3559 8.64962 88.67 8.79872 88.0502 9.10545C87.8493 9.25634 87.6907 9.45642 87.5895 9.68642C87.4884 9.91642 87.4482 10.1686 87.4729 10.4186V10.8527Z" fill="#273339"/>
<path d="M94.2949 22.5737C93.2832 22.0688 92.4429 21.2768 91.8791 20.2968C91.2931 19.2389 91.0001 18.0437 91.0304 16.8348C90.9989 15.6291 91.292 14.4371 91.8791 13.3836C92.4425 12.4141 93.2789 11.632 94.284 11.1349C95.4267 10.615 96.6675 10.3459 97.9229 10.3459C99.1783 10.3459 100.419 10.615 101.562 11.1349C102.568 11.6317 103.405 12.4138 103.969 13.3836C104.556 14.4371 104.849 15.6291 104.818 16.8348C104.848 18.0437 104.555 19.2389 103.969 20.2968C103.393 21.282 102.538 22.0744 101.512 22.5737C100.375 23.1006 99.137 23.3736 97.8839 23.3736C96.6308 23.3736 95.3927 23.1006 94.2558 22.5737H94.2949ZM100.34 16.8738C100.34 14.7698 99.5346 13.7179 97.924 13.7179C96.3135 13.7179 95.5068 14.7698 95.5039 16.8738C95.5039 18.9778 96.3091 20.0298 97.9197 20.0298C99.5302 20.0298 100.336 18.9778 100.338 16.8738H100.34Z" fill="#273339"/>
<path d="M106.791 23.2247V5.20923H111.349V23.2247H106.791Z" fill="#273339"/>
<path d="M113.953 4.34106H118.729V8.4651H113.953V4.34106ZM113.953 23.1944V10.6356H118.512V23.2248L113.953 23.1944Z" fill="#273339"/>
<path d="M123.855 22.5737C122.844 22.0688 122.003 21.2768 121.44 20.2968C120.854 19.2389 120.561 18.0437 120.591 16.8348C120.559 15.6291 120.853 14.4371 121.44 13.3836C122.003 12.4141 122.84 11.632 123.845 11.1349C124.987 10.615 126.228 10.3459 127.484 10.3459C128.739 10.3459 129.98 10.615 131.122 11.1349C132.128 11.632 132.964 12.4141 133.527 13.3836C134.115 14.4371 134.408 15.6291 134.376 16.8348C134.406 18.0437 134.113 19.2389 133.527 20.2968C132.96 21.2776 132.116 22.0695 131.101 22.5737C129.964 23.1006 128.726 23.3736 127.473 23.3736C126.22 23.3736 124.982 23.1006 123.845 22.5737H123.855ZM129.9 16.9303C129.9 14.8263 129.095 13.7743 127.485 13.7743C125.874 13.7743 125.069 14.8263 125.069 16.9303C125.069 19.0342 125.874 20.0862 127.485 20.0862C129.095 20.0862 129.897 19.0342 129.89 16.9303H129.9Z" fill="#273339"/>
<path d="M25.6124 15.3458C25.6688 21.7554 20.9002 27.2555 14.5535 27.9783C14.4194 27.9932 14.2846 28.0005 14.1498 28C12.8865 28 6.05798 28 3.53581 27.898C3.04466 27.8393 2.57784 27.6514 2.18285 27.3537C1.78786 27.0559 1.47881 26.6588 1.28713 26.2028C1.66461 26.3693 2.06901 26.4664 2.48093 26.4893C3.34915 26.5675 4.88155 26.4893 6.97178 26.4893C9.19659 26.4893 11.6015 26.5089 12.7541 26.5197C13.3692 26.5284 13.9838 26.4812 14.5904 26.3786C17.5061 25.8706 20.1656 24.3948 22.1395 22.1895C24.0567 20.0725 25.2701 17.4129 25.6124 14.5774V15.3458Z" fill="#3770FF"/>
<path d="M24.6008 12.5891C24.6158 15.7257 23.4594 18.7548 21.358 21.0834C19.2567 23.412 16.3618 24.8722 13.2402 25.1783H2.60452C1.87596 25.0732 1.21033 24.7072 0.731275 24.1483C0.252224 23.5894 -0.00767077 22.8756 -0.000126346 22.1395V3.03876C-0.000126346 1.51938 1.08514 0 2.60452 0H13.4572C16.559 0.308734 19.4299 1.7769 21.4959 4.11094C23.5619 6.44497 24.6708 9.47285 24.6008 12.5891Z" fill="#3770FF"/>
</g>
<defs>
<clipPath id="clip0_782_464">
<rect width="134.378" height="28" fill="white"/>
</clipPath>
</defs>
</svg>
