<svg width="145" height="32" viewBox="0 0 145 32" fill="none" xmlns="http://www.w3.org/2000/svg">
<path fill-rule="evenodd" clip-rule="evenodd" d="M29.8625 2.03776C26.9141 -0.910637 21.5405 -0.558437 15.9415 2.46036C15.1055 2.91036 15.1681 4.75836 15.9595 5.24176C20.3079 7.93163 23.9691 11.5984 26.6525 15.9508C27.1337 16.7428 29.0031 16.77 29.4399 15.9588C29.3371 15.7676 29.2313 15.5767 29.1225 15.3862C29.2308 15.5767 29.3366 15.7676 29.4399 15.9588C32.4587 10.3598 32.8109 4.98616 29.8625 2.03776ZM23.6315 8.26876C22.0301 6.65895 20.2756 5.20909 18.3929 3.93976C20.5605 2.93736 22.6253 2.39996 24.3743 2.39996C25.9381 2.39996 27.2503 2.82876 28.1599 3.73836C30.0899 5.66836 29.8605 9.40376 27.9607 13.5076C26.6896 11.626 25.2398 9.87159 23.6315 8.26876V8.26876Z" fill="#FFC750"/>
<path fill-rule="evenodd" clip-rule="evenodd" d="M31.1647 19.9959C30.7181 18.5989 30.1406 17.2472 29.4399 15.9587C28.9971 15.1355 27.1321 15.1603 26.6525 15.9507C25.3227 18.1255 23.7368 20.133 21.9289 21.9301C20.1354 23.739 18.1313 25.3262 15.9597 26.6577C15.1681 27.1411 15.1325 29.0043 15.9417 29.4389C18.9221 31.0469 21.8385 31.8983 24.3603 31.8983C26.5741 31.8983 28.4839 31.2423 29.8625 29.8635C32.0201 27.7061 32.4809 24.2023 31.1647 19.9959V19.9959ZM28.1599 28.1609C26.2299 30.0909 22.4965 29.8595 18.3929 27.9597C20.2756 26.6904 22.0301 25.2405 23.6315 23.6307C25.2406 22.031 26.6911 20.2792 27.9627 18.3999C29.8605 22.5017 30.0899 26.2329 28.1599 28.1609Z" fill="#FF6895"/>
<path fill-rule="evenodd" clip-rule="evenodd" d="M15.9415 2.46002C14.6528 1.75836 13.3003 1.18083 11.9023 0.735217C7.69809 -0.580783 4.19409 -0.120183 2.03669 2.03722C0.658092 3.41602 0.00189209 5.32602 0.00189209 7.54002C0.00189209 10.0618 0.853293 12.98 2.45929 15.9606C2.89609 16.7698 4.75929 16.7332 5.24269 15.9406C7.93308 11.5883 11.6029 7.92468 15.9597 5.24162C16.7463 4.76362 16.7627 2.90102 15.9417 2.46022L15.9415 2.46002ZM3.94049 13.5072C2.04049 9.40342 1.80929 5.66802 3.73929 3.73802C5.23069 2.24662 7.87529 1.99502 11.1839 3.03362C11.9762 3.28421 12.7519 3.58468 13.5063 3.93322C9.74217 6.4924 6.49645 9.74091 3.94049 13.5072V13.5072Z" fill="#5FC5A6"/>
<path fill-rule="evenodd" clip-rule="evenodd" d="M15.9597 26.6574C13.7808 25.3276 11.7698 23.7405 9.97009 21.9302C8.15965 20.1306 6.57237 18.1197 5.24249 15.9408C4.76289 15.1548 2.89989 15.1398 2.45909 15.9608C1.75897 17.2486 1.18214 18.5996 0.736289 19.996C-0.581911 24.2024 -0.119111 27.7062 2.03629 29.8636C3.38889 31.2142 5.26869 31.9004 7.51869 31.9004C9.00866 31.8778 10.4866 31.6295 11.9021 31.1638C13.2998 30.7173 14.6522 30.1398 15.9413 29.439C16.5913 29.091 16.7453 27.1372 15.9593 26.6576L15.9597 26.6574ZM11.1837 28.8674C7.87509 29.9036 5.23069 29.6522 3.73929 28.1608C2.24789 26.6696 1.99629 24.0248 3.03289 20.7162C3.28321 19.9244 3.58368 19.1494 3.93249 18.3958C5.20608 20.2764 6.6585 22.0295 8.26949 23.6306C9.86982 25.2426 11.6237 26.6945 13.5063 27.9656C12.7523 28.3156 11.9765 28.6167 11.1839 28.8672L11.1837 28.8674Z" fill="#5666F6"/>
<path fill-rule="evenodd" clip-rule="evenodd" d="M10.5785 15.8048L15.9501 7.36377L21.3217 15.8048L15.9501 18.8744L10.5785 15.8048V15.8048Z" fill="#1F294F"/>
<path fill-rule="evenodd" clip-rule="evenodd" d="M10.5785 17.2466L15.9501 20.316L21.3217 17.2466L15.9501 24.5366L10.5785 17.2466V17.2466Z" fill="#1F294F"/>
<path fill-rule="evenodd" clip-rule="evenodd" d="M18.3929 3.93916C17.5587 4.32848 16.7464 4.7632 15.9597 5.24136C15.1681 4.75792 14.3489 4.32118 13.5063 3.93336C14.2928 3.40171 15.1056 2.90996 15.9415 2.45996C16.7627 2.90076 17.5798 3.39383 18.3929 3.93916Z" fill="#5F9A34"/>
<path fill-rule="evenodd" clip-rule="evenodd" d="M29.4399 15.9585C28.9878 16.796 28.4948 17.6107 27.9627 18.3997C27.571 17.56 27.1336 16.7424 26.6525 15.9505C27.1321 15.1602 27.5687 14.3447 27.9605 13.5073C28.5039 14.3183 28.9971 15.1353 29.4399 15.9585Z" fill="#FF512F"/>
<path fill-rule="evenodd" clip-rule="evenodd" d="M18.3929 27.9597C18.2239 28.0745 18.0549 28.1851 17.8857 28.2937C17.2532 28.7013 16.6047 29.0833 15.9417 29.4389C15.1325 29.0042 14.3207 28.5132 13.5063 27.9657C14.3489 27.5779 15.1681 27.1412 15.9597 26.6577C16.7455 27.1373 17.5579 27.572 18.3929 27.9597V27.9597Z" fill="#552990"/>
<path fill-rule="evenodd" clip-rule="evenodd" d="M5.24269 15.9405C4.75931 16.7332 4.32186 17.553 3.93249 18.3959C3.40237 17.6085 2.91073 16.7958 2.45929 15.9607C2.91211 15.1189 3.40646 14.3001 3.94049 13.5073C4.32818 14.3423 4.76288 15.1547 5.24249 15.9405H5.24269Z" fill="#204FA0"/>
<path d="M140.786 22.66V23.9932C140.553 24.1298 140.288 24.2008 140.019 24.1984C139.485 24.2111 138.962 24.0434 138.535 23.7224C138.108 23.4013 137.802 22.9457 137.666 22.4292C136.949 23.2035 136.017 23.7459 134.989 23.9867C133.961 24.2275 132.885 24.1559 131.899 23.7809C130.912 23.406 130.06 22.7448 129.451 21.8822C128.843 21.0197 128.506 19.9951 128.484 18.9398C128.462 17.8846 128.756 16.8468 129.328 15.9597C129.9 15.0725 130.724 14.3764 131.694 13.9607C132.664 13.5449 133.736 13.4285 134.773 13.6263C135.81 13.8241 136.764 14.3271 137.513 15.0708V13.7376H139.098V21.3268C139.098 22.2754 139.584 22.66 140.146 22.66H140.786ZM137.513 18.8654C137.511 18.1275 137.29 17.4067 136.879 16.7941C136.467 16.1816 135.883 15.7047 135.201 15.4237C134.519 15.1427 133.768 15.0702 133.045 15.2154C132.321 15.3606 131.657 15.717 131.136 16.2395C130.615 16.762 130.261 17.4272 130.117 18.1511C129.974 18.8749 130.049 19.625 130.331 20.3066C130.614 20.9882 131.093 21.5706 131.707 21.9804C132.32 22.3901 133.042 22.6088 133.779 22.6088C134.27 22.6082 134.756 22.5108 135.21 22.3223C135.663 22.1339 136.075 21.8579 136.421 21.5103C136.768 21.1627 137.043 20.7502 137.23 20.2964C137.417 19.8426 137.513 19.3563 137.513 18.8654V18.8654ZM142.784 8.53242H144.45V24.199H142.784V8.53242ZM126.129 18.7964C126.133 19.8567 125.824 20.8948 125.242 21.7812C124.661 22.6676 123.831 23.3631 122.856 23.781C121.886 24.1916 120.815 24.3024 119.782 24.0991C118.748 23.8958 117.8 23.3878 117.057 22.6404V23.9912H115.468V8.19922H117.057V14.9522C117.8 14.2048 118.748 13.6968 119.782 13.4935C120.815 13.2902 121.886 13.401 122.856 13.8116C123.831 14.2296 124.661 14.9251 125.243 15.8115C125.824 16.698 126.133 17.7361 126.129 18.7964V18.7964ZM124.54 18.7964C124.53 18.0586 124.302 17.3402 123.885 16.7316C123.468 16.1229 122.88 15.6512 122.195 15.3757C121.511 15.1003 120.76 15.0333 120.038 15.1834C119.315 15.3334 118.653 15.6937 118.135 16.219C117.617 16.7443 117.265 17.411 117.125 18.1355C116.985 18.8599 117.062 19.6096 117.347 20.2903C117.631 20.9711 118.111 21.5525 118.725 21.9614C119.339 22.3703 120.061 22.5884 120.798 22.5884C121.291 22.5895 121.78 22.4921 122.235 22.302C122.689 22.1119 123.102 21.8329 123.447 21.4814C124.151 20.7655 124.544 19.8004 124.54 18.7964V18.7964ZM101.811 18.8658C101.812 17.6335 102.24 16.4397 103.023 15.4878C103.806 14.5359 104.894 13.8848 106.103 13.6454C107.312 13.4059 108.567 13.593 109.653 14.1747C110.739 14.7564 111.591 15.6967 112.062 16.8355C112.532 17.9744 112.594 19.2412 112.236 20.4203C111.877 21.5995 111.122 22.6179 110.097 23.3022C109.072 23.9865 107.841 24.2943 106.615 24.1733C105.389 24.0522 104.242 23.5097 103.371 22.6382C102.876 22.1427 102.483 21.5545 102.215 20.9072C101.948 20.2599 101.81 19.5663 101.811 18.8658V18.8658ZM110.882 18.8658C110.881 18.126 110.661 17.4029 110.25 16.788C109.839 16.1731 109.254 15.6939 108.571 15.4111C107.887 15.1283 107.135 15.0546 106.409 15.1992C105.684 15.3438 105.017 15.7003 104.494 16.2236C103.971 16.747 103.615 17.4136 103.471 18.1392C103.327 18.8649 103.401 19.617 103.684 20.3005C103.968 20.9839 104.447 21.5681 105.062 21.9791C105.677 22.3901 106.401 22.6094 107.141 22.6094C107.632 22.6093 108.119 22.5123 108.573 22.3241C109.027 22.1359 109.439 21.8601 109.786 21.5124C110.134 21.1648 110.409 20.7522 110.597 20.2981C110.785 19.844 110.882 19.3573 110.882 18.8658V18.8658ZM93.8157 15.6804V16.1446C93.8425 20.1666 90.9427 23.5836 87.0427 24.1254C83.1427 24.6672 79.4553 22.1658 78.4303 18.2826C77.4053 14.3994 79.3615 10.342 82.9991 8.80642C84.7638 8.06771 86.7394 8.00814 88.5454 8.63918C90.3514 9.27022 91.8601 10.5472 92.7807 12.2242L91.3925 13.0238C90.6953 11.7394 89.5609 10.7473 88.1951 10.2274C86.8292 9.7075 85.3223 9.69416 83.9475 10.1898C82.5671 10.7076 81.4109 11.6914 80.6788 12.9712C79.9467 14.2509 79.6846 15.7462 79.9379 17.1986C80.1558 18.6532 80.8877 19.9816 82.001 20.9429C83.1142 21.9042 84.5351 22.4347 86.006 22.4382C87.4768 22.4418 88.9002 21.9182 90.0181 20.9623C91.136 20.0064 91.8744 18.6816 92.0993 17.228H86.0161V15.6804H93.8157ZM97.1469 8.53242H98.8125V24.199H97.1469V8.53242ZM75.4941 8.53242V24.199H72.1371V17.8802H65.8847V24.199H62.5023V8.53242H65.8847V14.8252H72.1371V8.53222L75.4941 8.53242ZM61.1699 11.5874H57.3451V24.199H54.0271V11.5874H50.1769V8.53242H61.1699V11.5874ZM43.2607 11.5614V14.8514H48.3247V17.8802H43.2607V21.1702H49.1775V24.199H39.8501V8.53242H49.1775V11.5612L43.2607 11.5614Z" fill="#1F294F"/>
</svg>
