<svg width="341" height="82" viewBox="0 0 341 82" fill="none" xmlns="http://www.w3.org/2000/svg">
<g clip-path="url(#clip0)">
<path d="M92.062 41.833C92.062 28.549 99.136 21.961 113.014 21.961C118.684 21.961 122.032 22.987 124.895 24.283L122.465 30.925C118.846 29.953 117.335 29.575 113.122 29.52C106.21 29.413 101.405 33.3 101.405 41.292C101.405 49.285 106.481 53.551 114.203 53.551C117.928 53.551 120.143 53.227 123.057 52.471L125.002 59.383C121.33 60.733 118.145 61.219 113.231 61.219C99.245 61.219 92.062 54.361 92.062 41.833ZM150.71 45.937C150.71 41.185 149.523 37.567 144.552 37.567C139.693 37.567 138.344 41.185 138.344 45.992C138.344 51.067 139.856 54.145 144.661 54.145C149.523 54.145 150.709 50.959 150.709 45.937H150.71ZM129.27 46.207C129.27 36.432 135.373 30.438 144.715 30.438C155.191 30.438 159.891 36.325 159.891 45.938C159.891 55.981 153.3 61.328 144.228 61.328C134.509 61.328 129.27 55.441 129.27 46.206V46.207ZM162.81 31.195H172.476L177.444 47.179L178.956 53.065L180.631 47.179L186.137 31.195H195.589L184.14 60.679H173.447L162.81 31.195ZM216.27 53.173V48.53L211.845 48.639C209.197 48.692 207.255 49.556 207.255 51.716C207.255 53.444 208.928 54.2 210.548 54.2C212.276 54.2 214.328 53.713 216.271 53.174L216.27 53.173ZM198.505 52.255C198.505 44.803 205.311 43.291 211.143 43.291H216.271V41.454C216.271 38.863 214.597 38.107 210.927 38.107C208.009 38.107 204.877 38.755 202.123 39.402L200.343 32.868C203.691 31.573 207.579 30.493 212.276 30.493C221.403 30.493 225.075 33.085 225.075 39.727V52.849C225.075 53.821 226.047 54.037 227.72 54.091L227.396 60.895C226.695 60.949 225.991 60.949 225.289 60.949C221.727 60.949 217.947 60.355 217.137 57.817C214.977 59.492 211.899 61.165 208.657 61.165C202.179 61.165 198.505 58.141 198.505 52.255ZM234.419 19.962H243.437V60.68H234.419V19.962ZM268.441 42.913C268.549 39.349 266.983 36.865 264.067 36.865C260.989 36.865 258.992 39.025 258.829 42.913H268.441ZM249.593 46.368C249.593 34.327 255.913 30.493 264.823 30.493C274.111 30.493 277.676 36.541 277.676 45.451V48.691H258.56C258.507 53.335 262.177 54.199 266.873 54.199C268.873 54.199 272.221 53.551 275.3 53.011L276.65 59.868C273.356 60.841 269.144 61.328 265.58 61.328C255.86 61.328 249.593 58.141 249.593 46.368ZM283.835 31.195H292.853V34.165C294.636 32.815 298.524 30.438 302.467 30.438C311.7 30.438 312.348 35.514 312.348 42.211V60.68H303.383V42.967C303.383 38.917 302.467 38.215 299.44 38.215C296.741 38.215 294.312 39.079 292.853 39.781V60.679H283.835V31.195ZM321.205 51.499V37.837H316.887V31.195H321.205V25.146H330.169V31.195H339.297V37.837H330.169V51.445C330.169 53.605 330.98 53.767 333.411 53.767C335.408 53.767 339.783 53.173 339.783 53.173L340.647 60.247C338.54 60.841 335.679 61.273 333.519 61.273C327.848 61.273 321.205 61.543 321.205 51.499ZM40.648 18.956V-0.0039978C18.188 -0.0039978 0 18.185 0 40.644C0 63.104 18.189 81.294 40.648 81.294V62.334C28.66 62.334 18.96 52.633 18.96 40.644C18.96 28.657 28.66 18.956 40.648 18.956Z" fill="#000426"/>
<path d="M62.416 18.956C61.1711 18.956 59.9383 18.7108 58.7882 18.2344C57.638 17.758 56.5929 17.0597 55.7126 16.1794C54.8323 15.2991 54.134 14.254 53.6576 13.1038C53.1812 11.9537 52.936 10.7209 52.936 9.476C52.936 8.23107 53.1812 6.99833 53.6576 5.84816C54.134 4.698 54.8323 3.65293 55.7126 2.77263C56.5929 1.89233 57.638 1.19404 58.7882 0.717624C59.9383 0.24121 61.1711 -0.00399782 62.416 -0.0039978C64.9303 -0.00399777 67.3415 0.994785 69.1194 2.77263C70.8972 4.55048 71.896 6.96175 71.896 9.476C71.896 11.9903 70.8972 14.4015 69.1194 16.1794C67.3415 17.9572 64.9303 18.956 62.416 18.956Z" fill="#00D8D5"/>
<path d="M62.257 81.293C59.7427 81.293 57.3315 80.2942 55.5536 78.5164C53.7758 76.7385 52.777 74.3273 52.777 71.813C52.777 69.2988 53.7758 66.8875 55.5536 65.1096C57.3315 63.3318 59.7427 62.333 62.257 62.333C64.7713 62.333 67.1825 63.3318 68.9604 65.1096C70.7382 66.8875 71.737 69.2988 71.737 71.813C71.737 74.3273 70.7382 76.7385 68.9604 78.5164C67.1825 80.2942 64.7713 81.293 62.257 81.293Z" fill="#EA048C"/>
<path d="M62.337 40.644C62.337 52.633 52.637 62.334 40.648 62.334V18.955C52.636 18.955 62.337 28.655 62.337 40.643" fill="#000426"/>
</g>
<defs>
<clipPath id="clip0">
<rect width="340.64" height="81.293" fill="white"/>
</clipPath>
</defs>
</svg>
