<svg width="2000" height="556" viewBox="0 0 2000 556" fill="none" xmlns="http://www.w3.org/2000/svg">
<g clip-path="url(#clip0_478_1603)">
<path d="M240.686 0L0 138.99V416.876L240.686 555.772L481.184 416.876V138.99L240.686 0ZM409.929 375.701L240.686 473.422L71.3487 375.701V180.072L240.686 82.3504L409.929 180.072V375.701Z" fill="#002D74"/>
<path style="mix-blend-mode:multiply" d="M240.686 555.772L481.184 416.876V138.99L240.686 0V82.4435L409.929 180.165V375.794L240.686 473.422V555.772Z" fill="url(#paint0_linear_478_1603)"/>
<path style="mix-blend-mode:multiply" d="M240.498 0.000244141L-0.000701904 138.897L-0.000701904 416.783L240.498 555.772V473.329L71.2547 375.608L71.2547 179.979L240.498 82.3507V0.000244141Z" fill="url(#paint1_linear_478_1603)"/>
<path d="M352.925 342.816L240.592 407.653L128.167 342.816V213.049L240.592 148.119L352.925 213.049L306.166 240.065L240.592 202.15L175.019 240.065V315.708L240.592 353.623L306.166 315.708L352.925 342.816Z" fill="#002D74"/>
<path d="M659.276 298.942V298.197C659.114 283.472 661.895 268.863 667.454 255.227C673.014 241.591 681.241 229.203 691.653 218.79C702.064 208.377 714.451 200.149 728.085 194.588C741.719 189.028 756.326 186.247 771.05 186.409C787.193 185.844 803.258 188.898 818.069 195.345C832.88 201.792 846.062 211.471 856.649 223.672L825.819 256.556C810.822 241.092 794.988 229.727 770.677 229.727C735.003 229.727 708.643 260.562 708.643 297.918V298.756C708.643 336.857 735.003 367.226 772.633 367.226C783.28 367.02 793.764 364.565 803.395 360.021C813.027 355.478 821.589 348.949 828.52 340.863L858.14 370.114C843.427 387.697 823.685 400.352 801.566 406.378C779.448 412.405 756.015 411.513 734.419 403.823C712.823 396.132 694.099 382.013 680.765 363.363C667.431 344.713 660.127 322.427 659.835 299.501L659.276 298.942Z" fill="#002D74"/>
<path d="M902.196 190.694H951.656V238.949C965.069 206.903 989.752 185.012 1027.48 186.595V238.577H1024.68C981.648 238.577 951.656 266.524 951.656 323.256V404.768H902.196V190.694Z" fill="#002D74"/>
<path d="M1051.04 298.943V298.197C1051.78 268.476 1064.07 240.212 1085.31 219.411C1106.55 198.61 1135.06 186.912 1164.78 186.803C1194.51 186.694 1223.11 198.182 1244.5 218.827C1265.89 239.471 1278.39 267.644 1279.34 297.359V298.197C1279.35 313.132 1276.36 327.916 1270.56 341.677C1264.75 355.437 1256.25 367.896 1245.56 378.316C1234.86 388.737 1222.18 396.908 1208.28 402.347C1194.37 407.786 1179.51 410.383 1164.59 409.985C1149.79 410.359 1135.06 407.761 1121.28 402.344C1107.5 396.928 1094.95 388.803 1084.36 378.451C1073.78 368.098 1065.37 355.728 1059.65 342.072C1053.93 328.415 1051 313.75 1051.04 298.943ZM1230.25 298.943V298.197C1230.63 289.314 1229.21 280.446 1226.09 272.122C1222.96 263.798 1218.19 256.188 1212.07 249.746C1205.94 243.304 1198.58 238.163 1190.42 234.627C1182.26 231.092 1173.48 229.235 1164.59 229.168C1125.19 229.168 1100.04 260.003 1100.04 297.359V298.197C1099.7 307.006 1101.13 315.792 1104.25 324.037C1107.37 332.283 1112.1 339.819 1118.18 346.202C1124.26 352.585 1131.56 357.685 1139.64 361.2C1147.72 364.715 1156.43 366.574 1165.24 366.667C1205.1 366.667 1230.25 335.833 1230.25 298.943Z" fill="#002D74"/>
<path d="M1328.8 190.695H1378.07V223.579C1385.06 212.101 1394.9 202.633 1406.64 196.101C1418.38 189.569 1431.61 186.198 1445.04 186.316C1493.29 186.316 1521.24 218.735 1521.24 268.201V404.862H1472.15V283.106C1472.15 249.849 1455.57 230.845 1426.32 230.845C1397.08 230.845 1378.07 250.781 1378.07 283.944V405.048H1328.61L1328.8 190.695Z" fill="#002D74"/>
<path d="M1568.92 298.943V298.197C1569.66 268.476 1581.95 240.212 1603.19 219.411C1624.43 198.61 1652.94 186.912 1682.67 186.803C1712.39 186.694 1740.99 198.182 1762.38 218.827C1783.77 239.471 1796.27 267.644 1797.22 297.359V298.197C1797.23 313.132 1794.24 327.916 1788.44 341.677C1782.63 355.437 1774.13 367.896 1763.44 378.316C1752.74 388.737 1740.06 396.908 1726.16 402.347C1712.25 407.786 1697.39 410.383 1682.47 409.985C1667.67 410.359 1652.94 407.761 1639.16 402.344C1625.38 396.928 1612.83 388.803 1602.24 378.451C1591.66 368.098 1583.25 355.728 1577.53 342.072C1571.81 328.415 1568.88 313.75 1568.92 298.943ZM1748.13 298.943V298.197C1748.51 289.314 1747.09 280.446 1743.97 272.122C1740.84 263.798 1736.08 256.188 1729.95 249.746C1723.82 243.304 1716.46 238.163 1708.3 234.627C1700.14 231.092 1691.36 229.235 1682.47 229.168C1643.07 229.168 1617.92 260.003 1617.92 297.359V298.197C1617.58 307.006 1619.01 315.792 1622.13 324.037C1625.25 332.283 1629.98 339.819 1636.06 346.202C1642.14 352.585 1649.44 357.685 1657.52 361.2C1665.6 364.715 1674.31 366.574 1683.12 366.667C1722.71 366.667 1748.13 335.833 1748.13 298.943Z" fill="#002D74"/>
<path d="M1829.64 376.821L1851.53 343.564C1871.53 359.547 1896.09 368.777 1921.66 369.927C1942.81 369.927 1954.92 360.612 1954.92 346.825V345.986C1954.92 329.404 1932.28 323.722 1907.13 315.99C1875.46 306.674 1840.16 294.098 1840.16 253.575V252.736C1840.16 211.748 1873.88 187.061 1916.45 187.061C1944.42 187.581 1971.68 196.011 1995.06 211.375L1975.6 246.215C1957.58 234.338 1936.77 227.37 1915.24 226C1896.61 226 1885.25 235.316 1885.25 247.054V247.892C1885.25 263.729 1908.34 270.157 1933.49 278.261C1964.7 288.043 2000 302.203 2000 340.769V341.515C2000 386.603 1965.07 408.867 1920.45 408.867C1887.45 408.63 1855.48 397.348 1829.64 376.821Z" fill="#002D74"/>
</g>
<defs>
<linearGradient id="paint0_linear_478_1603" x1="360.935" y1="555.772" x2="360.935" y2="277.886" gradientUnits="userSpaceOnUse">
<stop stop-color="#002D74"/>
<stop offset="1" stop-color="#002D74" stop-opacity="0"/>
</linearGradient>
<linearGradient id="paint1_linear_478_1603" x1="120.249" y1="0.000244141" x2="120.249" y2="277.886" gradientUnits="userSpaceOnUse">
<stop stop-color="#002D74"/>
<stop offset="1" stop-color="#002D74" stop-opacity="0"/>
</linearGradient>
<clipPath id="clip0_478_1603">
<rect width="2000" height="556" fill="white"/>
</clipPath>
</defs>
</svg>
