<svg width="1710" height="481" viewBox="0 0 1710 481" fill="none" xmlns="http://www.w3.org/2000/svg">
<g clip-path="url(#clip0_503_220)">
<rect width="1710" height="481" rx="240.5" fill="white"/>
<path d="M282.935 79H344.16C352.513 79 359.986 84.1909 362.902 92.0182L416.642 236.276C417.056 237.389 417.061 238.613 416.656 239.729L416.354 240.558L416.352 240.566L362.838 387.831C359.965 395.737 352.452 401 344.04 401H282.825C279.382 401 276.97 397.602 278.104 394.352L333.284 236.276L278.239 85.7168C277.047 82.4545 279.462 79 282.935 79Z" fill="black"/>
<path d="M123.115 79H184.339C192.692 79 200.165 84.1909 203.081 92.0182L256.821 236.276C257.235 237.389 257.24 238.613 256.835 239.729L256.533 240.558L256.53 240.566L203.017 387.831C200.144 395.737 192.631 401 184.22 401H123.004C119.562 401 117.149 397.602 118.283 394.352L173.463 236.276L118.419 85.7168C117.226 82.4545 119.641 79 123.115 79Z" fill="black"/>
<path d="M333.284 236.276L278.239 85.7168C277.047 82.4545 279.462 79 282.935 79H344.16C352.513 79 359.986 84.1909 362.902 92.0182L416.642 236.276C417.056 237.389 417.061 238.613 416.656 239.729L362.838 387.831C359.965 395.737 352.452 401 344.04 401H282.825C279.382 401 276.97 397.602 278.104 394.352L304.534 318.638L333.284 236.276ZM333.284 236.276L278.308 394.249C277.086 397.517 279.502 401 282.991 401H344.04M333.284 236.276L278.31 85.7521C277.087 82.4839 279.503 79 282.993 79H344.16M333.284 236.276L278.104 394.352C276.97 397.602 279.382 401 282.825 401H344.04M333.284 236.276L278.239 85.7168C277.047 82.4545 279.462 79 282.935 79H344.16M344.16 79C352.513 79 359.986 84.1909 362.902 92.0182L416.642 236.276M416.642 236.276C417.056 237.389 417.061 238.613 416.656 239.729M416.642 236.276L416.652 238.838C416.654 239.425 416.554 240.007 416.354 240.558M416.656 239.729L362.838 387.831M416.656 239.729L416.354 240.558M362.838 387.831C359.965 395.737 352.452 401 344.04 401M362.838 387.831L416.352 240.566L416.354 240.558M173.463 236.276L118.283 394.352C117.149 397.602 119.562 401 123.004 401H184.22C192.631 401 200.144 395.737 203.017 387.831L256.53 240.566L256.533 240.558L256.835 239.729C257.24 238.613 257.235 237.389 256.821 236.276L203.081 92.0182C200.165 84.1909 192.692 79 184.339 79H123.115C119.641 79 117.226 82.4545 118.419 85.7168L173.463 236.276Z" stroke="black"/>
<path d="M321.284 202.5H244.784V272.5H321.284L333.784 236.5L321.284 202.5Z" fill="black" stroke="black"/>
<path d="M505.75 338V159.25H542V229.25H612.25V159.25H648.5V338H612.25V259.25H542V338H505.75ZM675.916 380V353.25H687.916C700.583 353.25 706.916 347.417 706.916 335.75C706.916 330.083 703.666 318.5 697.166 301L662.666 209.75H698.416L717.416 267.5L725.666 295.5H726.166C728.499 284.667 730.999 275.333 733.666 267.5L751.666 209.75H785.916L741.166 341.25C736.166 355.917 730.499 366 724.166 371.5C717.999 377.167 708.583 380 695.916 380H675.916ZM797.434 380V209.75H830.184V225.75H830.934C840.434 212.75 853.017 206.25 868.684 206.25C885.517 206.25 899.017 212.5 909.184 225C919.35 237.5 924.434 253.833 924.434 274C924.434 294.667 919.35 311.167 909.184 323.5C899.017 335.667 885.6 341.75 868.934 341.75C852.267 341.75 839.934 335.667 831.934 323.5H831.434V380H797.434ZM861.684 313.5C870.35 313.5 877.184 310.083 882.184 303.25C887.35 296.417 889.934 287 889.934 275C889.934 262.167 887.517 252.083 882.684 244.75C877.85 237.417 870.434 233.75 860.434 233.75C850.267 233.75 842.767 237.583 837.934 245.25C833.1 252.75 830.684 262.667 830.684 275C830.684 286.833 833.35 296.25 838.684 303.25C844.017 310.083 851.684 313.5 861.684 313.5ZM1000.51 341.75C979.839 341.75 963.589 335.417 951.756 322.75C939.923 309.917 934.006 293.583 934.006 273.75C934.006 254.583 939.923 238.583 951.756 225.75C963.589 212.75 978.756 206.25 997.256 206.25C1017.42 206.25 1033.01 213.25 1044.01 227.25C1055.01 241.25 1060.51 260 1060.51 283.5H967.506C968.839 293.667 972.256 301.583 977.756 307.25C983.256 312.75 990.756 315.5 1000.26 315.5C1012.76 315.5 1021.01 310.25 1025.01 299.75H1058.51C1056.01 311.75 1049.67 321.75 1039.51 329.75C1029.34 337.75 1016.34 341.75 1000.51 341.75ZM997.756 232.5C981.256 232.5 971.339 241.667 968.006 260H1025.01C1024.51 251.833 1021.76 245.25 1016.76 240.25C1011.76 235.083 1005.42 232.5 997.756 232.5ZM1108.99 209.75V230.25H1109.74C1113.74 222.75 1118.16 217.25 1122.99 213.75C1127.83 210.083 1133.91 208.25 1141.24 208.25C1144.74 208.25 1147.41 208.583 1149.24 209.25V239H1148.49C1136.99 237.833 1127.74 240.333 1120.74 246.5C1113.74 252.667 1110.24 262.333 1110.24 275.5V338H1076.24V209.75H1108.99ZM1164.39 338V159.25H1198.39V338H1164.39ZM1301.52 338C1299.86 335.833 1298.52 331.083 1297.52 323.75H1297.02C1293.36 329.25 1288.69 333.5 1283.02 336.5C1277.36 339.5 1269.44 341 1259.27 341C1245.77 341 1234.94 337.583 1226.77 330.75C1218.61 323.917 1214.52 314.25 1214.52 301.75C1214.52 288.75 1219.02 279.25 1228.02 273.25C1237.02 267.083 1249.69 262.833 1266.02 260.5C1278.02 258.833 1286.19 257.167 1290.52 255.5C1294.86 253.667 1297.02 250.5 1297.02 246C1297.02 241.333 1295.19 237.667 1291.52 235C1287.86 232.167 1282.52 230.75 1275.52 230.75C1260.02 230.75 1251.77 236.75 1250.77 248.75H1220.52C1221.02 236.583 1225.94 226.5 1235.27 218.5C1244.61 210.5 1258.11 206.5 1275.77 206.5C1311.77 206.5 1329.77 222.25 1329.77 253.75V319C1329.77 328.667 1331.27 334.583 1334.27 336.75V338H1301.52ZM1267.52 317.25C1276.86 317.25 1284.19 314.833 1289.52 310C1295.02 305.167 1297.77 299.417 1297.77 292.75V273.5C1294.11 275.667 1286.19 278.167 1274.02 281C1264.36 283.167 1257.52 285.667 1253.52 288.5C1249.52 291.167 1247.52 295.333 1247.52 301C1247.52 311.833 1254.19 317.25 1267.52 317.25ZM1384.64 209.75V227.25H1385.39C1394.22 213.25 1406.89 206.25 1423.39 206.25C1436.56 206.25 1447.22 210.75 1455.39 219.75C1463.56 228.583 1467.64 240.083 1467.64 254.25V338H1433.64V259.25C1433.64 252.25 1431.64 246.583 1427.64 242.25C1423.81 237.917 1418.39 235.75 1411.39 235.75C1403.89 235.75 1397.64 238.5 1392.64 244C1387.81 249.5 1385.39 256.583 1385.39 265.25V338H1351.39V209.75H1384.64ZM1548.85 341.75C1528.18 341.75 1511.93 335.417 1500.1 322.75C1488.26 309.917 1482.35 293.583 1482.35 273.75C1482.35 254.583 1488.26 238.583 1500.1 225.75C1511.93 212.75 1527.1 206.25 1545.6 206.25C1565.76 206.25 1581.35 213.25 1592.35 227.25C1603.35 241.25 1608.85 260 1608.85 283.5H1515.85C1517.18 293.667 1520.6 301.583 1526.1 307.25C1531.6 312.75 1539.1 315.5 1548.6 315.5C1561.1 315.5 1569.35 310.25 1573.35 299.75H1606.85C1604.35 311.75 1598.01 321.75 1587.85 329.75C1577.68 337.75 1564.68 341.75 1548.85 341.75ZM1546.1 232.5C1529.6 232.5 1519.68 241.667 1516.35 260H1573.35C1572.85 251.833 1570.1 245.25 1565.1 240.25C1560.1 235.083 1553.76 232.5 1546.1 232.5Z" fill="black"/>
</g>
<defs>
<clipPath id="clip0_503_220">
<rect width="1710" height="481" rx="240.5" fill="white"/>
</clipPath>
</defs>
</svg>
