<svg width="830" height="423" viewBox="0 0 830 423" fill="none" xmlns="http://www.w3.org/2000/svg">
<path d="M437.1 381.53V345.4H477.41V333.54H437.1V311.63H479.89V299.66H422.75V381.52H437.09L437.1 381.53ZM502.64 313.22V299.67H489.2V313.22H502.64ZM502.64 381.53V320.78H489.2V381.53H502.64ZM531.19 381.53V299.67H517.75V381.53H531.19ZM573.57 383C589.15 383 598.41 373.06 601.12 363.35H587.91C585.54 369.11 580.12 371.82 573.01 371.82C565.33 371.82 557.43 366.29 556.52 355H601.8C603.04 334.68 591.3 319.43 572.67 319.43C555.51 319.43 542.86 332.42 542.86 350.71C542.86 369 554.04 383 573.57 383V383ZM588.14 345.17H556.52C557.76 333.77 566.34 329.93 572.67 329.93C580.57 329.93 587.8 335.69 588.14 345.17ZM640.06 383C653.05 383 665.58 374.98 668.29 360.76H655.19C653.38 368.89 646.95 371.83 640.29 371.83C632.39 371.83 624.71 365.62 624.71 351.17C624.71 336.72 632.16 330.62 640.63 330.62C647.97 330.62 653.5 335.14 654.74 341.57H667.84C665.47 328.13 653.95 319.44 640.63 319.44C622.45 319.44 610.82 333.22 610.82 351.28C610.82 369.34 622.45 383.01 640.07 383.01L640.06 383ZM706.07 383C720.86 383 735.99 373.29 735.99 351.27C735.99 329.25 720.86 319.43 706.07 319.43C691.28 319.43 676.15 329.37 676.15 351.27C676.15 373.17 691.28 383 706.07 383ZM706.07 372.05C697.49 372.05 690.04 365.39 690.04 351.27C690.04 337.15 697.49 330.38 706.07 330.38C714.65 330.38 722.1 337.27 722.1 351.27C722.1 365.27 714.65 372.05 706.07 372.05V372.05ZM761.41 313.22V299.67H747.97V313.22H761.41ZM761.41 381.53V320.78H747.97V381.53H761.41ZM789.96 381.53V349.24C789.96 338.29 793.69 330.38 804.07 330.38C814.45 330.38 815.59 338.51 815.59 346.64V381.53H829.03V343.36C829.03 328.91 823.05 319.42 808.37 319.42C799.79 319.42 793.47 322.92 789.96 329.24V320.77H776.52V381.52H789.96V381.53Z" fill="black"/>
<path fill-rule="evenodd" clip-rule="evenodd" d="M463.53 4.0834L288.49 422.603L281.11 419.517L456.15 0.996613L463.53 4.0834Z" fill="black"/>
<path d="M17.07 298.73H0V381.29H17.07V298.73Z" fill="black"/>
<path d="M46.83 381.29V351C50.99 351.32 55.26 351.32 58.78 351.32C83.1 351.32 90.14 339.26 90.14 324.44C90.14 306.41 77.23 298.73 57.39 298.73H29.76V381.29H46.83ZM56 339.37C52.8 339.37 48.21 339.37 46.72 339.26V311.21H57.39C67.63 311.21 73.5 316.12 73.5 325.08V325.29C73.61 332.33 71.05 339.37 56.01 339.37H56Z" fill="black"/>
<path d="M148.49 298.73H96.65V381.29H113.72V344.92H146.15V332.55H113.62V311.32H147.33L148.5 298.73H148.49Z" fill="black"/>
<path d="M206.47 316.02L210.8 305C204.42 300.37 195.67 298.72 184.75 298.72C168.79 298.72 155.72 306.13 155.72 321.37C155.72 335.06 165.81 340.41 175.79 343.71L185.88 347.11C192.78 349.48 198.44 351.74 198.44 359.15C198.44 365.94 192.57 368.62 183.62 368.62C174.67 368.62 164.88 365.94 159.32 362.44L155 374.38C162.21 379.01 171.37 381.28 183.62 381.28C201.12 381.28 214.61 373.56 214.61 357.29C214.61 342.05 202.98 337.22 191.24 333.31L180.33 329.71C175.59 328.17 171.99 326 171.99 319.93C171.99 313.86 177.03 311.28 184.65 311.28C193.92 310.97 201.12 312.72 206.47 316.01V316.02Z" fill="black"/>
<path fill-rule="evenodd" clip-rule="evenodd" d="M624.701 262.999C569.314 263.211 524.102 217.888 524.354 162.199C524.605 107.153 569.596 62.0222 625.355 62.3544C680.32 62.6865 725.461 107.667 725.029 163.517C724.606 218.331 679.918 263.17 624.691 262.989" fill="#0090FF"/>
<path fill-rule="evenodd" clip-rule="evenodd" d="M637.162 154.569C645.908 155.807 654.463 157.015 663.28 158.253C664.025 155.596 664.649 153.342 665.374 150.755C656.305 149.416 647.649 148.128 638.359 146.759C641.48 135.698 644.187 125.129 647.559 114.773C648.666 111.361 651.152 108.16 653.688 105.513C657.01 102.04 661.609 102.815 664.418 106.62C665.595 108.22 666.702 109.901 668.121 111.27C669.923 113.011 672.58 113.857 674.392 112.166C675.58 111.049 675.539 108.432 675.66 106.459C675.7 105.664 674.774 104.738 674.12 104.003C670.97 100.44 666.722 99.182 662.233 98.9908C652.219 98.568 645.032 103.681 639.396 111.391C633.81 119.04 631.354 128.028 628.687 136.916C627.912 139.512 627.238 142.139 626.463 144.988C616.71 143.579 607.359 142.22 597.737 140.831C597.395 143.428 597.073 145.863 596.741 148.45C606.272 149.919 615.381 151.318 624.802 152.768C623.544 158.082 622.366 163.044 621.158 168.127C611.919 166.839 603.152 165.611 594.335 164.383C593.963 167.231 593.681 169.385 593.349 171.921C602.206 173.27 610.751 174.579 619.347 175.887C619.347 176.853 619.447 177.417 619.327 177.93C616.579 189.626 614.032 201.371 610.953 212.966C609.483 218.502 607.118 223.836 602.518 227.732C598.734 230.932 594.567 230.399 591.728 226.423C590.44 224.632 589.373 222.508 587.672 221.26C586.434 220.344 583.666 219.79 582.761 220.525C581.412 221.622 580.436 224.038 580.546 225.809C580.647 227.379 582.157 229.221 583.546 230.298C588.226 233.901 593.741 234.425 599.327 233.328C608.678 231.486 615.28 225.648 619.367 217.395C622.578 210.903 624.983 203.978 627.258 197.084C629.321 190.844 630.71 184.382 632.461 177.789C641.651 179.118 650.649 180.426 659.848 181.755C660.603 179.128 661.287 176.763 662.032 174.206C652.42 172.797 643.241 171.438 633.991 170.08C635.098 164.644 636.095 159.813 637.172 154.539" fill="white"/>
<g clip-path="url(#clip0_1_85)">
<path d="M108 263L200 209.971V103.971L108 156.941V263.02V263Z" fill="#35777A"/>
<path d="M108 263V156.902L16 103.971V209.971L108 263Z" fill="#43979B"/>
<path d="M16 103.971L108 156.941L200 103.971L108 51L16 103.971Z" fill="#3F898D"/>
<path d="M98.5415 63.7395L31.8229 102.193C31.9795 103.404 31.9795 104.537 31.8229 105.749L98.5415 144.202C104.142 140.04 111.877 140.04 117.478 144.202L184.197 105.749C184.04 104.537 184.04 103.404 184.197 102.193L117.458 63.7395C111.779 67.9014 104.123 67.9014 98.5219 63.7395H98.5415Z" fill="#51B8BC"/>
<path d="M190.542 116.319L123.764 155.144C124.528 162.1 120.729 168.665 114.306 171.459L114.384 247.916C115.441 248.365 116.499 248.971 117.498 249.733L184.216 211.28C183.453 204.324 187.252 197.759 193.675 194.965V118.137C192.617 117.687 191.56 117.081 190.561 116.319H190.542Z" fill="#459DA2"/>
<path d="M25.4585 116.769C24.4794 117.453 23.4807 118.058 22.3448 118.586V195.414C28.7876 198.208 32.5671 204.851 31.8033 211.729L98.5219 250.182C99.5011 249.498 100.5 248.893 101.636 248.365V171.557C95.1929 168.763 91.4134 162.119 92.1771 155.241L25.4585 116.769Z" fill="#64C1C8"/>
</g>
<defs>
<clipPath id="clip0_1_85">
<rect width="184" height="212" fill="white" transform="translate(16 51)"/>
</clipPath>
</defs>
</svg>
