<?xml version="1.0" encoding="utf-8"?>
<!-- Generator: Adobe Illustrator 16.0.0, SVG Export Plug-In . SVG Version: 6.00 Build 0)  -->
<!DOCTYPE svg PUBLIC "-//W3C//DTD SVG 1.1//EN" "http://www.w3.org/Graphics/SVG/1.1/DTD/svg11.dtd">
<svg version="1.1" id="StackOS_Logo" xmlns="http://www.w3.org/2000/svg" xmlns:xlink="http://www.w3.org/1999/xlink" x="0px"
	 y="0px" width="1370px" height="376px" viewBox="0 0 1370 376" enable-background="new 0 0 1370 376" xml:space="preserve">
<g id="Layer_1_1_">
	<g>
		<path d="M126.235,344.137H4.535v-53.048h121.7c7.315-0.026,13.241-5.95,13.267-13.269c0-3.765-1.297-6.229-3.892-7.405
			c-2.99-1.25-6.213-1.854-9.454-1.765H70.853c-8.921,0.063-17.759-1.728-25.951-5.267c-15.895-6.815-28.516-19.547-35.198-35.498
			c-6.885-16.606-6.885-35.271,0-51.886c6.655-15.898,19.3-28.542,35.198-35.199c8.206-3.479,17.037-5.244,25.951-5.185h107.852
			v53.063H70.853c-7.309,0.043-13.223,5.959-13.267,13.271c-0.067,3.616,1.345,7.104,3.909,9.655
			c2.42,2.586,5.815,4.031,9.357,3.988h55.383c8.79-0.06,17.517,1.497,25.746,4.584c7.802,2.864,14.98,7.203,21.146,12.776
			c6.008,5.543,10.833,12.239,14.18,19.694c3.566,7.92,5.362,16.521,5.264,25.213c0.073,8.887-1.719,17.688-5.264,25.84
			c-3.39,7.812-8.198,14.928-14.18,20.986c-6.027,6.057-13.186,10.875-21.066,14.18
			C143.904,342.386,135.113,344.177,126.235,344.137z"/>
		<path d="M325.583,344.135c-12.453,0.073-24.789-2.414-36.24-7.31c-22.426-9.552-40.287-27.411-49.836-49.839
			c-4.896-11.448-7.385-23.783-7.312-36.237v-62.062h-25.981v-53.065h25.935V52.111H285.2v83.511h80.75v53.065H285.2v62.029
			c-0.04,5.41,1.033,10.771,3.151,15.755c2.01,4.772,4.925,9.111,8.587,12.778c3.699,3.686,8.069,6.631,12.873,8.681
			c4.979,2.125,10.345,3.198,15.758,3.153h40.365v53.048L325.583,344.135L325.583,344.135z"/>
		<path d="M598.054,344.158V131.713h-12.872l-20.642,24.784c-4.992-4.716-10.306-9.079-15.899-13.062
			c-5.635-4.021-11.605-7.549-17.851-10.541c-6.188-2.967-12.653-5.313-19.302-7.013c-6.562-1.688-13.312-2.54-20.09-2.538
			c-14.217-0.109-28.312,2.624-41.454,8.036c-12.709,5.253-24.245,12.981-33.938,22.736c-9.882,10.036-17.67,21.938-22.91,35.011
			c-5.718,14.224-8.568,29.437-8.396,44.767c0,17.412,2.801,32.948,8.396,46.604c5.144,13.021,12.945,24.827,22.91,34.662
			c9.706,9.448,21.26,16.788,33.938,21.554c13.243,5.006,27.297,7.521,41.454,7.421c6.729,0,13.433-0.854,19.945-2.534
			c6.611-1.703,13.047-4.021,19.226-6.934c6.232-2.918,12.204-6.375,17.835-10.336c5.621-3.932,11-8.197,16.104-12.779
			l19.748,32.605L598.054,344.158L598.054,344.158z M544.42,233.939c0.006,7.258-1.414,14.442-4.177,21.157
			c-2.692,6.688-6.558,12.847-11.406,18.183c-4.781,5.242-10.5,9.543-16.858,12.686c-6.396,3.154-13.442,4.775-20.576,4.729
			c-7.024,0.086-14.01-1.13-20.596-3.576c-6.316-2.39-12.044-6.118-16.778-10.938c-4.935-5.104-8.751-11.18-11.22-17.834
			c-2.847-7.774-4.232-16.007-4.096-24.283c-0.141-8.276,1.249-16.518,4.096-24.295c2.472-6.651,6.291-12.729,11.221-17.836
			c4.736-4.811,10.463-8.536,16.779-10.918c6.567-2.504,13.549-3.765,20.576-3.718c7.135-0.054,14.184,1.565,20.578,4.728
			c6.355,3.113,12.074,7.388,16.857,12.605c4.853,5.319,8.72,11.46,11.424,18.136c2.783,6.714,4.225,13.905,4.238,21.179
			L544.42,233.939L544.42,233.939z"/>
		<path d="M821.176,172.93l-39.014,39.187c-1.855-5.306-4.553-10.271-7.986-14.718c-3.236-4.222-7.082-7.938-11.408-11.028
			c-4.196-2.979-8.84-5.281-13.754-6.822c-4.918-1.561-10.049-2.352-15.205-2.349c-7.105-0.04-14.135,1.493-20.578,4.491
			c-6.412,2.979-12.132,7.272-16.777,12.605c-4.896,5.657-8.696,12.175-11.219,19.223c-2.811,7.881-4.194,16.197-4.098,24.562
			c-0.049,7.037,1.346,14.01,4.098,20.484c2.65,6.246,6.459,11.938,11.219,16.778c4.792,4.843,10.496,8.688,16.777,11.312
			c11.297,4.687,23.854,5.372,35.597,1.954c4.772-1.42,9.336-3.482,13.551-6.146c4.234-2.674,8.045-5.96,11.312-9.755
			c3.312-3.839,6.039-8.143,8.1-12.775l39.014,39.2c-4.902,6.974-10.641,13.324-17.08,18.906
			c-6.369,5.53-13.373,10.291-20.861,14.183c-7.487,3.907-15.424,6.896-23.633,8.887c-8.328,2.024-16.871,3.041-25.444,3.024
			c-14.24,0.091-28.351-2.735-41.454-8.303c-25.553-10.735-45.938-30.979-56.848-56.454c-5.636-13.061-8.493-27.143-8.396-41.359
			c-0.104-15.342,2.761-30.558,8.429-44.811c5.29-13.452,13.062-25.788,22.91-36.367c9.619-10.284,21.146-18.601,33.938-24.485
			c12.994-5.988,27.146-9.047,41.453-8.965c8.65-0.007,17.269,1.104,25.638,3.31c16.905,4.465,32.407,13.139,45.062,25.21
			C811.01,158.107,816.621,165.184,821.176,172.93z"/>
		<polygon fill="#AAFF00" points="1365.465,31.842 1314.977,31.842 1252.469,101.479 1310.641,201.262 1209.203,344.137 
			1261.686,344.137 1361.471,201.262 1303.312,101.479 		"/>
		<polygon points="951.873,198.141 989.176,141.475 934.215,141.475 902.525,189.003 902.525,52.16 848.891,52.16 848.891,344.137 
			903.338,343.996 903.455,268.382 922.201,242.432 981.904,344.137 1036.498,344.137 		"/>
		<polygon fill="#AAFF00" points="1180.92,31.993 1006.277,31.993 950.408,116.285 1005.756,116.285 1035.459,71.918 
			1151.85,71.918 1226.111,200.561 1155.531,304.107 1051.797,304.148 1075.652,344.137 1180.416,344.137 1277.756,204.837 		"/>
	</g>
</g>
<g id="Layer_2" display="none">
	<g id="Layer_2_1_" display="inline">
		<rect x="820.543" y="128.255" fill="#E99600" width="28.297" height="443.489"/>
		<rect x="3.167" y="145.773" fill="#E99600" width="1363.667" height="27.294"/>
		<rect x="3.167" y="485.779" fill="#E99600" width="1362.996" height="27.297"/>
		<rect x="3.167" y="237.428" fill="#E99600" width="931.13" height="27.293"/>
		<rect x="598.542" y="128.255" fill="#E99600" width="28.297" height="443.489"/>
		<rect x="178.542" y="128.255" fill="#E99600" width="28.297" height="443.489"/>
	</g>
</g>
</svg>
