<svg id="Layer_1" data-name="Layer 1" xmlns="http://www.w3.org/2000/svg" viewBox="0 0 504 198"><defs><style>.cls-1{fill:#2d2d2d;}</style></defs><path class="cls-1" d="M98.62,161.74a9.1,9.1,0,0,1-9.33-8.31l-1.05-8.23c-10-2.85-15.85-10.25-17.37-22l-9-69.34a33.4,33.4,0,0,0-5.84-.42,31.64,31.64,0,0,0-8.57,1.11V159.71H29.8V75.18c0-11.47,5.15-19.57,14.53-22.94V46.79c0-6.3,3.83-10.53,9.52-10.53s9.26,3.54,10.18,10l.7,5.05C75,54.18,81,62.43,82.78,75.82l8.32,66.84a39.68,39.68,0,0,0,15.05,0l8.32-66.83c1.74-13.4,7.81-21.65,18.05-24.55l.7-5.05c.92-6.43,4.54-10,10.18-10s9.52,4.23,9.52,10.53v5.45c9.38,3.37,14.53,11.47,14.53,22.94v84.53H149.77V54.54a31.64,31.64,0,0,0-8.57-1.11,33.4,33.4,0,0,0-5.84.42l-9,69.35c-1.49,11.54-7.48,19.12-17.37,22L108,153.44A8.9,8.9,0,0,1,98.62,161.74ZM91.51,146l.91,7.09a5.92,5.92,0,0,0,6.2,5.55,5.8,5.8,0,0,0,6.21-5.54l.91-7.1a43.93,43.93,0,0,1-14.23,0Zm61.41,10.61H164.3V75.18c0-9.72-3.92-16.43-11.38-19.56Zm-120,0H44.33V55.62C36.88,58.75,33,65.46,33,75.18ZM65.18,54.72,74,122.79c1.26,9.85,5.91,16.22,13.81,19L79.66,76.21C78.16,64.65,73.41,57.59,65.18,54.72Zm66.89,0c-8.23,2.87-13,9.93-14.48,21.5l-8.15,65.53c7.91-2.78,12.55-9.15,13.81-19ZM47.48,51.24v0a35.34,35.34,0,0,1,8.57-1,38.81,38.81,0,0,1,5.4.32l-.54-3.93c-.69-4.82-3.07-7.26-7.06-7.26s-6.37,2.83-6.37,7.38Zm93.72-1a35.34,35.34,0,0,1,8.57,1V46.79c0-4.55-2.44-7.38-6.37-7.38s-6.37,2.44-7.06,7.26l-.54,3.93A38.81,38.81,0,0,1,141.2,50.28Z"/><path class="cls-1" d="M216.2,159.71H198.85V38.29H216.2ZM202,156.56h11.05V41.44H202Z"/><path class="cls-1" d="M328.76,161.74c-7.53,0-9.25-6.87-9.81-9.13l-1.3-5.76c-11.27-2-18.15-9.27-21-22.16L280.32,53.77a43.9,43.9,0,0,0-5.63-.34,31.06,31.06,0,0,0-9.24,1.25v105H247.77v-85c0-11,5-18.65,14.53-22.23V46.79c0-6.3,3.82-10.53,9.51-10.53,4.91,0,8.52,3.12,9.66,8.34L282.92,51c11,2,17.6,9.06,20.67,22.15l16.65,70.93a44.33,44.33,0,0,0,5.65.34,36,36,0,0,0,9.23-1.13v-105H352.8V126c0,9-5.27,16.06-14.53,19.53V151C338.27,157.64,334.63,161.74,328.76,161.74ZM321,147.35l1,4.53c1.19,4.76,3.15,6.71,6.75,6.71,4,0,6.36-2.75,6.36-7.55v-4.52a39.78,39.78,0,0,1-9.23,1,47.47,47.47,0,0,1-4.88-.24v.05Zm-70.08,9.21H262.3V55.83c-7.56,3.27-11.38,9.6-11.38,18.84Zm32.77-102.2,16,69.63c2.48,11.15,8,17.4,17.16,19.49L300.53,73.85C297.87,62.54,292.64,56.43,283.69,54.36Zm54.58-12.92V142.18c7.36-3.12,11.38-8.79,11.38-16.14V41.44Zm-72.82,9.92v0a35.44,35.44,0,0,1,9.24-1.12,47.47,47.47,0,0,1,4.88.24v-.05h0l-1.18-5.19c-.48-2.2-2-5.87-6.58-5.87s-6.36,3.81-6.36,7.38Z"/><path class="cls-1" d="M474.2,159.71H455.7l-9.12-36.16H395.3l-8.95,36.16h-18.5l23.86-87.82C394.47,61.86,400.78,55,410,52l1.65-6.9c1-3.8,3-8.81,9.31-8.81s8.32,5,9.3,8.78L431.89,52c9.2,3,15.51,9.89,18.28,19.91Zm-16.05-3.15h11.92L447.13,72.72c-2.27-8.23-7.19-14.07-14.31-17L447,111.73H395.1l14-56.06c-7.13,3-12.05,8.81-14.32,17L372,156.56h11.92l8.95-36.16H449Zm-59-48h43.78l-13.64-54.1a33.8,33.8,0,0,0-16.66,0ZM413.5,50.92l0,.12a37.16,37.16,0,0,1,14.93,0l0-.13,0,0-1.22-5.13c-1.19-4.59-2.94-6.39-6.24-6.39s-5.05,1.8-6.25,6.42l-1.22,5.1Z"/></svg>