<?xml version="1.0" encoding="UTF-8" standalone="no"?>
<!-- Created with Inkscape (http://www.inkscape.org/) -->

<svg
   version="1.1"
   id="svg2"
   xml:space="preserve"
   width="4074.7068"
   height="1141.8719"
   viewBox="0 0 4074.7068 1141.8719"
   sodipodi:docname="Moonbeam Logo Final- Blue.ai"
   xmlns:inkscape="http://www.inkscape.org/namespaces/inkscape"
   xmlns:sodipodi="http://sodipodi.sourceforge.net/DTD/sodipodi-0.dtd"
   xmlns="http://www.w3.org/2000/svg"
   xmlns:svg="http://www.w3.org/2000/svg"><defs
     id="defs6"><clipPath
       clipPathUnits="userSpaceOnUse"
       id="clipPath16"><path
         d="M 0,856.404 H 3056.032 V 0 H 0 Z"
         id="path14" /></clipPath></defs><sodipodi:namedview
     id="namedview4"
     pagecolor="#ffffff"
     bordercolor="#666666"
     borderopacity="1.0"
     inkscape:pageshadow="2"
     inkscape:pageopacity="0.0"
     inkscape:pagecheckerboard="0" /><g
     id="g8"
     inkscape:groupmode="layer"
     inkscape:label="Moonbeam Logo Final- Blue"
     transform="matrix(1.3333333,0,0,-1.3333333,0,1141.872)"><g
       id="g10"><g
         id="g12"
         clip-path="url(#clipPath16)"><g
           id="g18"
           transform="translate(600.1944,234.1498)"><path
             d="m 0,0 c -1.567,17.491 -3.263,37.729 -5.082,60.718 -1.824,22.982 -3.646,47.035 -5.475,72.159 -1.829,25.12 -3.639,50.391 -5.423,75.82 -1.788,25.426 -3.308,49.225 -4.563,71.397 -6.754,-20.747 -13.582,-41.6 -20.497,-62.548 -6.914,-20.953 -13.477,-40.838 -19.687,-59.651 -6.213,-18.816 -11.953,-35.849 -17.227,-51.105 -5.275,-15.256 -9.548,-27.565 -12.814,-36.919 -3.456,-6.308 -6.966,-12.309 -10.538,-18.002 -3.574,-5.697 -7.231,-10.679 -10.978,-14.95 -3.747,-4.272 -7.613,-7.681 -11.591,-10.222 -3.983,-2.546 -8.108,-3.814 -12.379,-3.814 -5.698,0 -10.459,1.221 -14.29,3.662 -3.831,2.441 -6.22,6.102 -7.168,10.984 -0.197,1.015 -0.338,1.983 -0.41,2.899 -0.078,0.914 -0.013,1.878 0.199,2.898 -6.831,28.881 -13.406,58.02 -19.726,87.415 -6.321,29.392 -12.247,58.324 -17.779,86.805 -1.304,6.713 -2.608,13.425 -3.912,20.138 -1.304,6.712 -2.487,13.32 -3.548,19.833 -4.581,-18.308 -9.734,-37.33 -15.46,-57.058 -5.731,-19.732 -11.911,-39.206 -18.552,-58.429 -6.639,-19.221 -13.722,-37.734 -21.249,-55.531 -7.526,-17.801 -15.369,-33.973 -23.528,-48.513 -8.158,-14.545 -16.579,-26.954 -25.263,-37.224 -8.684,-10.274 -17.513,-17.444 -26.486,-21.51 -7.872,-3.457 -14.815,-5.949 -20.821,-7.475 -6.011,-1.526 -11.455,-2.289 -16.337,-2.289 -7.323,0 -13.054,1.479 -17.184,4.425 -4.133,2.95 -6.613,6.56 -7.443,10.831 -0.987,5.082 0.121,10.373 3.325,15.866 3.205,5.492 8.373,9.763 15.513,12.815 8.642,3.661 17.293,11.747 25.952,24.256 8.654,12.509 17.143,27.714 25.464,45.614 8.318,17.897 16.344,37.835 24.081,59.804 7.732,21.968 15.053,44.241 21.956,66.82 6.903,22.577 13.232,44.699 18.993,66.362 5.755,21.663 10.801,41.238 15.135,58.735 4.33,17.491 7.85,32.084 10.563,43.783 2.711,11.694 4.402,18.965 5.069,21.816 1.621,6.302 4.7,10.879 9.232,13.73 4.53,2.845 9.44,4.271 14.731,4.271 7.323,0 12.79,-1.982 16.411,-5.949 3.618,-3.967 6.416,-11.037 8.391,-21.205 4.116,-12.816 7.83,-24.867 11.143,-36.157 3.309,-11.289 6.529,-22.883 9.656,-34.783 3.122,-11.899 6.174,-24.713 9.146,-38.444 2.972,-13.73 6.198,-29.549 9.675,-47.446 2.489,-12.815 4.979,-26.954 7.476,-42.41 2.493,-15.461 5.599,-32.753 9.313,-51.869 15.796,44.341 29.809,83.448 42.047,117.315 12.232,33.869 23.097,62.243 32.586,85.128 9.486,22.883 17.874,40.171 25.165,51.869 7.287,11.695 13.779,17.544 19.476,17.544 h 2.135 c 0.61,0 1.212,0.048 1.801,0.153 0.591,0.1 1.191,0.152 1.802,0.152 4.881,0 9.335,-3.05 13.372,-9.154 4.032,-6.102 6.998,-14.034 8.895,-23.798 1.121,-9.969 2.311,-22.378 3.569,-37.223 1.255,-14.851 2.548,-31.175 3.869,-48.972 1.323,-17.802 2.68,-36.566 4.071,-56.294 1.391,-19.731 2.754,-39.312 4.087,-58.734 1.333,-19.428 2.709,-38.292 4.129,-56.599 1.42,-18.306 2.858,-34.887 4.322,-49.733 0.104,-2.647 0.427,-5.339 0.961,-8.086 0.533,-2.746 1.077,-5.545 1.63,-8.391 1.027,-5.292 2.165,-10.631 3.416,-16.018 1.248,-5.392 2.39,-10.732 3.417,-16.019 1.185,-6.101 2.076,-12.258 2.671,-18.459 0.595,-6.208 0.003,-11.799 -1.775,-16.781 -1.777,-4.986 -5.311,-9.054 -10.596,-12.204 -5.29,-3.152 -13.117,-4.731 -23.491,-4.731 -5.492,0 -10.274,2.088 -14.335,6.256 C 5.173,-18.26 2.095,-10.784 0,0"
             style="fill:#53cbc8;fill-opacity:1;fill-rule:nonzero;stroke:none"
             id="path20" /></g><g
           id="g22"
           transform="translate(2256.896,341.2445)"><path
             d="m 0,0 c -1.267,-5.697 -3.229,-12.104 -5.88,-19.223 -2.652,-7.122 -5.869,-14.391 -9.646,-21.815 -3.778,-7.427 -7.899,-14.239 -12.365,-20.443 -4.463,-6.206 -9.079,-11.289 -13.835,-15.255 -4.759,-3.967 -9.378,-5.95 -13.85,-5.95 -5.696,0 -10.604,1.22 -14.724,3.662 -4.121,2.441 -7.669,5.491 -10.646,9.153 -2.977,3.661 -5.408,7.676 -7.283,12.053 -1.879,4.371 -3.452,8.589 -4.727,12.661 -3.119,9.964 -4.194,19.881 -3.212,29.749 0.978,9.864 3.684,18.764 8.116,26.697 4.429,7.934 10.357,14.341 17.781,19.222 7.419,4.883 15.909,7.323 25.472,7.323 3.252,0 7.242,-0.563 11.968,-1.678 4.723,-1.12 9.366,-2.799 13.933,-5.034 4.564,-2.241 8.663,-4.935 12.295,-8.086 C -2.973,19.88 -0.549,16.371 0.66,12.511 1.488,9.864 1.27,5.692 0,0 m -318.291,-32.952 c 0.013,3.861 0.294,8.643 0.851,14.34 0.553,5.693 1.59,11.641 3.106,17.849 1.514,6.203 3.47,12.457 5.87,18.765 2.401,6.302 5.614,11.946 9.649,16.934 4.034,4.982 8.93,9.001 14.686,12.052 5.759,3.05 12.498,4.577 20.232,4.577 h 2.746 c 0.81,0 1.758,-0.105 2.842,-0.305 2.568,-0.411 5.101,-1.527 7.61,-3.358 2.504,-1.83 4.236,-4.271 5.191,-7.321 1.147,-3.662 0.77,-7.986 -1.126,-12.969 -1.899,-4.985 -6.531,-10.325 -13.902,-16.017 -1.653,-1.221 -4.429,-3.562 -8.33,-7.019 -3.902,-3.461 -8.538,-7.321 -13.912,-11.594 -5.377,-4.271 -11.145,-8.748 -17.309,-13.424 -6.16,-4.683 -12.231,-8.849 -18.204,-12.51 m -151.257,11.441 c -1.693,-11.494 -5.479,-21.816 -11.357,-30.968 -5.882,-9.154 -13.488,-16.529 -22.821,-22.122 -9.337,-5.596 -19.905,-8.39 -31.7,-8.39 -6.101,0 -11.27,0.915 -15.505,2.747 -4.234,1.83 -7.764,4.166 -10.586,7.016 -2.828,2.846 -5.068,5.951 -6.729,9.307 -1.661,3.356 -3,6.659 -4.02,9.915 -3.693,11.795 -4.393,23.442 -2.09,34.937 2.299,11.489 6.642,21.815 13.034,30.968 6.388,9.155 14.507,16.524 24.348,22.122 9.843,5.592 20.561,8.39 32.157,8.39 5.08,0 9.455,-0.968 13.111,-2.898 3.657,-1.936 6.741,-4.325 9.263,-7.171 2.518,-2.851 4.573,-6.002 6.165,-9.458 1.589,-3.461 2.864,-6.713 3.82,-9.765 3.63,-11.593 4.599,-23.14 2.91,-34.63 m -576.558,-7.17 c -0.885,-10.173 -3.528,-19.275 -7.926,-27.307 -4.4,-8.038 -10.244,-14.545 -17.532,-19.528 -7.287,-4.987 -15.614,-7.475 -24.967,-7.475 -6.103,0 -11.397,1.32 -15.887,3.967 -4.488,2.64 -8.324,5.95 -11.496,9.916 -3.178,3.966 -5.783,8.238 -7.827,12.814 -2.043,4.577 -3.669,8.797 -4.879,12.663 -3.249,10.374 -4.385,20.49 -3.403,30.359 0.978,9.864 3.647,18.712 8.012,26.544 4.361,7.828 10.22,14.135 17.571,18.917 7.353,4.778 15.804,7.17 25.367,7.17 6.303,0 11.657,-1.171 16.05,-3.508 4.394,-2.34 8.127,-5.34 11.209,-9 3.076,-3.662 5.556,-7.681 7.434,-12.053 1.876,-4.377 3.455,-8.595 4.728,-12.662 3.248,-10.374 4.429,-20.648 3.546,-30.817 m 1639.495,0.61 c -1.656,5.288 -4.472,9.559 -8.438,12.815 -3.968,3.251 -7.782,4.882 -11.444,4.882 -1.631,0 -3.16,-0.306 -4.596,-0.915 -1.438,-0.61 -2.54,-1.63 -3.316,-3.052 -3.224,-5.291 -7.731,-11.851 -13.518,-19.679 -5.785,-7.834 -12.276,-15.361 -19.475,-22.579 -7.197,-7.221 -14.986,-13.378 -23.359,-18.46 -8.376,-5.086 -16.834,-7.627 -25.378,-7.627 -4.476,0 -8.276,0.61 -11.403,1.831 -3.129,1.22 -5.393,4.066 -6.795,8.543 -1.528,4.882 -1.746,10.117 -0.648,15.713 1.095,5.593 2.748,11.033 4.958,16.324 2.206,5.288 4.612,10.269 7.218,14.951 2.602,4.677 4.649,8.543 6.133,11.595 4.656,9.153 8.066,19.221 10.223,30.206 2.152,10.984 1.32,22.578 -2.501,34.783 -2.42,7.727 -5.829,14.234 -10.233,19.527 -4.401,5.286 -9.522,9.611 -15.349,12.967 -5.833,3.356 -12.021,5.744 -18.569,7.17 -6.546,1.421 -13.178,2.136 -19.89,2.136 -9.155,0 -17.147,-1.121 -23.969,-3.356 -6.826,-2.241 -12.869,-5.187 -18.13,-8.849 -5.261,-3.661 -9.921,-7.78 -13.979,-12.357 -4.06,-4.577 -7.697,-9.206 -10.91,-13.883 -2.575,6.913 -5.896,12.815 -9.965,17.698 -4.075,4.881 -8.568,8.848 -13.489,11.898 -4.921,3.052 -10.152,5.287 -15.68,6.713 -5.532,1.421 -11.147,2.136 -16.839,2.136 -11.396,0 -21.153,-1.631 -29.289,-4.881 -8.134,-3.257 -15.135,-7.375 -20.998,-12.358 -5.865,-4.987 -11.028,-10.426 -15.484,-16.324 -4.46,-5.901 -8.636,-11.394 -12.539,-16.476 0.468,6.303 -0.126,12.1 -1.782,17.391 -2.228,7.118 -5.916,12.558 -11.061,16.323 -5.144,3.763 -10.263,5.646 -15.345,5.646 -5.902,0 -11.183,-2.136 -15.842,-6.407 -4.667,-4.273 -7.457,-10.784 -8.38,-19.528 -0.821,-7.122 -1.945,-15.714 -3.369,-25.782 -1.424,-10.069 -2.946,-20.8 -4.567,-32.189 -0.463,-3.256 -0.931,-6.538 -1.397,-9.808 -8.727,-13.002 -17.191,-24.582 -25.388,-34.739 -3.545,-4.272 -7.255,-8.496 -11.138,-12.662 -3.881,-4.172 -7.753,-7.885 -11.616,-11.137 -3.863,-3.257 -7.58,-5.85 -11.143,-7.78 -3.564,-1.936 -6.871,-2.899 -9.923,-2.899 -4.883,0 -8.964,1.983 -12.236,5.949 -3.279,3.967 -5.87,9.001 -7.781,15.104 -1.464,4.677 -2.521,10.321 -3.166,16.934 -0.648,6.608 -1.032,13.677 -1.147,21.205 -0.12,7.523 -0.032,15.204 0.262,23.036 0.294,7.829 0.632,15.356 1.015,22.579 0.382,7.218 0.722,13.777 1.01,19.68 0.289,5.898 0.333,10.779 0.143,14.645 -0.054,0.811 -0.299,1.932 -0.745,3.356 -1.592,5.083 -5.498,9.763 -11.718,14.036 -6.22,4.271 -13.195,6.407 -20.923,6.407 -2.441,0 -5.163,-0.563 -8.172,-1.678 -3.004,-1.121 -5.809,-2.394 -8.416,-3.814 -3.15,-1.63 -6.171,-3.357 -9.055,-5.188 -5.28,3.862 -11.071,7.424 -17.379,10.68 -5.508,2.64 -11.964,5.082 -19.378,7.323 -7.413,2.235 -15.596,3.356 -24.544,3.356 -17.292,0 -32.013,-3.003 -44.171,-9.001 -12.156,-6.002 -22.212,-13.834 -30.172,-23.494 -7.959,-9.663 -14.047,-20.595 -18.26,-32.799 -4.217,-12.205 -6.954,-24.563 -8.224,-37.073 -0.95,-9.351 -1.241,-18.447 -0.872,-27.288 -3.254,-2.313 -6.944,-4.862 -11.073,-7.646 -6.637,-4.477 -14.158,-9.206 -22.559,-14.189 -8.41,-4.985 -17.181,-9.61 -26.318,-13.882 -9.141,-4.271 -18.617,-7.781 -28.436,-10.527 -9.82,-2.745 -19.41,-4.118 -28.764,-4.118 -8.748,0 -16.291,1.677 -22.63,5.034 -6.344,3.356 -10.943,7.981 -13.804,13.883 24.474,10.168 44.343,20.29 59.602,30.358 15.253,10.07 26.862,19.933 34.822,29.597 7.959,9.657 12.711,19.169 14.257,28.527 1.543,9.355 0.98,18.308 -1.695,26.851 -4.522,14.44 -12.227,25.729 -23.115,33.868 -10.89,8.132 -24.774,12.204 -41.655,12.204 -16.07,0 -30.44,-2.342 -43.113,-7.018 -12.674,-4.681 -23.699,-10.883 -33.072,-18.612 -9.381,-7.732 -17.221,-16.629 -23.526,-26.697 -6.306,-10.068 -11.059,-20.395 -14.255,-30.969 -3.201,-10.579 -4.887,-21.106 -5.063,-31.58 -0.113,-6.555 0.348,-12.771 1.378,-18.648 -0.458,-0.137 -0.896,-0.288 -1.357,-0.421 -8.494,-2.441 -17.419,-3.661 -26.772,-3.661 -2.851,0 -5.472,0.252 -7.867,0.762 -2.4,0.505 -4.659,1.878 -6.781,4.12 2.156,6.102 3.657,13.167 4.497,21.205 0.841,8.033 1.234,15.866 1.187,23.493 -0.053,7.629 -0.419,14.493 -1.109,20.596 -0.692,6.103 -1.354,10.169 -1.991,12.205 -2.802,8.948 -6.948,16.829 -12.438,23.645 -5.489,6.813 -11.664,12.558 -18.517,17.239 -6.857,4.678 -13.921,8.239 -21.193,10.68 -7.277,2.441 -14.066,3.661 -20.369,3.661 -8.953,0 -17.329,-1.172 -25.141,-3.51 -7.81,-2.339 -15.092,-5.391 -21.848,-9.152 -6.754,-3.765 -13.044,-8.037 -18.872,-12.814 -5.825,-4.783 -11.198,-9.717 -16.115,-14.799 5.945,29.087 10.966,58.529 15.061,88.33 4.096,29.797 9.143,59.141 15.154,88.025 1.167,4.069 2.018,8.492 2.557,13.274 0.534,4.777 0.169,9.201 -1.106,13.272 -1.655,5.287 -4.939,9.763 -9.846,13.425 -4.913,3.661 -12.047,5.492 -21.401,5.492 -3.661,0 -7.099,-0.562 -10.305,-1.678 -3.212,-1.121 -6.037,-2.646 -8.484,-4.577 -2.445,-1.935 -4.46,-4.119 -6.031,-6.56 -1.576,-2.441 -2.559,-4.986 -2.952,-7.627 l -27.092,-198.02 c -0.784,-5.292 -1.367,-9.611 -1.737,-12.967 -0.374,-3.357 -0.671,-6.307 -0.891,-8.848 -0.222,-2.547 -0.422,-4.986 -0.605,-7.323 -0.183,-2.34 -0.391,-5.086 -0.625,-8.239 -0.233,-3.155 -0.564,-6.969 -0.993,-11.441 -0.43,-4.477 -1.02,-10.068 -1.764,-16.781 -0.567,-5.744 -0.84,-11.602 -0.84,-17.563 -5.928,-5.794 -12.475,-11.584 -19.648,-17.374 -8.445,-6.816 -17.46,-13.271 -27.039,-19.374 -9.584,-6.101 -19.228,-11.189 -28.939,-15.255 -2.073,-1.831 -3.975,-2.898 -5.709,-3.204 -1.735,-0.306 -3.318,-0.457 -4.739,-0.457 -2.24,0 -4.057,0.609 -5.454,1.83 -1.404,1.22 -2.353,2.642 -2.864,4.272 -1.337,4.271 -1.194,8.032 0.432,11.288 0.884,3.662 2.235,8.286 4.044,13.884 1.806,5.591 3.797,11.747 5.967,18.46 2.17,6.71 4.244,13.882 6.232,21.509 1.984,7.629 3.514,15.408 4.591,23.342 1.073,7.933 1.487,15.865 1.244,23.799 -0.247,7.933 -1.515,15.561 -3.807,22.883 -3.885,12.405 -10.254,21.206 -19.096,26.392 -8.847,5.188 -18.66,7.781 -29.439,7.781 -9.564,0 -19.202,-1.526 -28.926,-4.576 -9.723,-3.051 -18.871,-6.97 -27.443,-11.749 -8.572,-4.78 -16.09,-10.172 -22.55,-16.17 -6.464,-6.002 -11.04,-11.852 -13.73,-17.544 0.544,3.457 0.645,6.712 0.3,9.764 -0.345,3.052 -0.931,5.897 -1.759,8.543 -2.165,6.912 -5.741,12.152 -10.718,15.713 -4.98,3.557 -9.909,5.34 -14.792,5.34 -5.902,0 -11.23,-2.136 -15.995,-6.407 -4.765,-4.273 -7.813,-10.784 -9.141,-19.528 -0.456,-3.162 -1.003,-6.64 -1.631,-10.401 -1.027,-0.334 -1.871,-0.913 -2.482,-1.803 -1.69,-3.052 -3.831,-6.764 -6.429,-11.137 -2.596,-4.376 -5.572,-9.001 -8.925,-13.882 -3.354,-4.882 -7.012,-9.764 -10.976,-14.647 -3.964,-4.881 -8.085,-9.258 -12.368,-13.12 -4.282,-3.866 -8.635,-7.017 -13.057,-9.457 -4.423,-2.441 -8.77,-3.663 -13.041,-3.663 -3.051,0 -6.061,0.506 -9.022,1.527 -2.963,1.014 -5.846,2.745 -8.641,5.186 0.576,8.543 0.454,16.729 -0.367,24.561 -0.826,7.829 -2.193,14.799 -4.103,20.901 -3.693,11.795 -9.292,21.712 -16.791,29.749 -7.501,8.033 -15.779,14.493 -24.831,19.376 -9.056,4.881 -18.324,8.338 -27.809,10.373 -9.484,2.031 -18.094,3.051 -25.822,3.051 -17.902,0 -33.266,-2.899 -46.096,-8.696 -12.831,-5.797 -23.462,-13.425 -31.889,-22.884 -8.433,-9.458 -14.902,-20.136 -19.413,-32.037 -4.513,-11.899 -7.571,-23.903 -9.17,-36.003 -1.602,-12.104 -1.943,-23.851 -1.018,-35.24 0.922,-11.395 2.658,-21.158 5.205,-29.292 3.759,-12.004 9.278,-22.173 16.571,-30.512 7.289,-8.341 15.15,-15.102 23.591,-20.29 8.437,-5.186 16.769,-8.895 24.998,-11.135 8.223,-2.237 15.186,-3.357 20.883,-3.357 15.051,0 28.649,1.883 40.797,5.644 12.142,3.763 22.911,9.002 32.303,15.715 9.388,6.713 17.299,14.745 23.727,24.102 6.426,9.354 11.52,19.729 15.275,31.122 6.229,-3.661 12.092,-6.306 17.587,-7.932 5.493,-1.63 10.881,-2.441 16.173,-2.441 7.728,0 14.787,2.136 21.183,6.407 6.39,4.272 12.189,9.459 17.401,15.561 0.103,0.121 0.198,0.247 0.301,0.368 -1.168,-7.582 -2.2,-14.844 -3.072,-21.725 -1.291,-10.174 -2.151,-19.122 -2.578,-26.851 -0.429,-7.732 -0.099,-13.325 0.983,-16.781 2.039,-6.513 5.79,-12.004 11.262,-16.477 5.466,-4.471 11.76,-6.712 18.882,-6.712 6.913,0 11.977,2.189 15.185,6.56 3.208,4.372 5.608,9.864 7.199,16.475 1.592,6.609 2.871,13.731 3.839,21.359 0.968,7.628 2.432,14.798 4.402,21.511 3.387,9.964 7.381,21.252 11.974,33.867 4.595,12.611 10.207,24.562 16.846,35.851 6.634,11.289 14.589,20.795 23.866,28.529 9.276,7.727 20.422,11.593 33.442,11.593 3.456,0 6.384,-1.067 8.783,-3.203 2.395,-2.135 4.074,-4.729 5.03,-7.781 1.083,-3.461 1.158,-7.933 0.237,-13.424 -0.926,-5.492 -2.271,-11.748 -4.041,-18.764 -1.769,-7.018 -3.768,-14.446 -5.994,-22.274 -2.229,-7.833 -4.186,-15.713 -5.868,-23.647 -1.688,-7.933 -2.828,-15.665 -3.419,-23.189 -0.594,-7.527 -0.106,-14.445 1.462,-20.747 0.306,-1.63 0.614,-3.103 0.928,-4.425 0.31,-1.325 0.692,-2.698 1.137,-4.118 3.377,-10.784 8.492,-19.176 15.357,-25.172 6.859,-5.998 15.68,-9.001 26.464,-9.001 3.662,0 7.547,0.409 11.67,1.22 4.117,0.815 8.564,2.036 13.347,3.661 14.056,4.472 26.02,9.306 35.89,14.493 9.865,5.188 18.898,10.78 27.088,16.782 8.19,5.998 16.032,12.457 23.529,19.375 0.544,0.501 1.12,1.034 1.671,1.542 2.594,-7.032 5.803,-13.755 9.649,-20.155 4.884,-8.137 10.926,-15.255 18.129,-21.357 7.198,-6.103 15.627,-10.932 25.285,-14.492 9.657,-3.557 20.69,-5.34 33.099,-5.34 22.578,0 42.065,4.833 58.469,14.492 16.397,9.659 29.996,24.867 40.791,45.615 5.276,-3.866 10.95,-6.713 17.014,-8.543 6.067,-1.832 12.35,-2.746 18.863,-2.746 10.168,0 19.849,1.068 29.049,3.203 5.521,1.282 10.89,2.853 16.141,4.649 6.561,-9.96 14.231,-18.789 23.031,-26.464 9.092,-7.934 19.107,-14.241 30.029,-18.918 10.921,-4.677 22.488,-7.017 34.692,-7.017 14.235,0 28.09,1.883 41.559,5.644 13.468,3.763 26.069,8.491 37.815,14.188 11.744,5.693 22.6,11.949 32.568,18.765 7.344,5.019 13.944,9.846 19.81,14.48 3.232,-7.792 7.369,-14.604 12.413,-20.43 6.692,-7.733 13.953,-14.035 21.789,-18.917 7.831,-4.882 15.594,-8.39 23.281,-10.526 7.687,-2.135 14.171,-3.204 19.462,-3.204 10.374,0 19.846,2.394 28.419,7.17 8.574,4.778 16.322,10.879 23.255,18.307 6.929,7.423 12.993,15.661 18.196,24.715 5.199,9.048 9.615,17.848 13.247,26.391 -0.28,-3.661 -0.067,-7.58 0.627,-11.746 0.696,-4.172 1.711,-8.391 3.049,-12.663 2.038,-6.512 4.839,-12.867 8.411,-19.068 3.571,-6.208 7.798,-11.747 12.682,-16.63 4.886,-4.882 10.346,-8.848 16.389,-11.9 6.038,-3.05 12.617,-4.576 19.74,-4.576 7.932,0 15.781,1.883 23.557,5.644 7.771,3.763 15.359,8.592 22.77,14.493 7.407,5.898 14.406,12.458 20.993,19.681 2.376,2.603 4.665,5.199 6.913,7.79 -0.125,-2.445 -0.223,-4.795 -0.288,-7.028 -0.224,-7.732 0.237,-13.424 1.384,-17.086 2.039,-6.512 5.927,-12.105 11.662,-16.782 5.736,-4.677 12.267,-7.016 19.589,-7.016 6.713,0 11.589,2.287 14.632,6.864 3.039,4.577 5.29,10.222 6.749,16.934 1.456,6.713 2.471,14.035 3.039,21.967 0.567,7.934 1.631,15.256 3.19,21.969 2.029,6.507 4.244,13.73 6.642,21.663 2.398,7.934 5.134,15.914 8.215,23.952 3.076,8.032 6.642,15.814 10.692,23.341 4.052,7.522 8.727,14.188 14.032,19.985 5.304,5.797 11.263,10.474 17.88,14.036 6.614,3.556 14.089,5.338 22.433,5.338 3.455,0 6.436,-1.067 8.935,-3.203 2.499,-2.135 4.26,-4.835 5.279,-8.086 0.955,-3.05 1.284,-6.054 0.987,-9.001 -0.298,-2.95 -0.956,-6.053 -1.969,-9.305 -3.491,-11.595 -7.464,-22.937 -11.926,-34.021 -4.462,-11.088 -8.36,-22.02 -11.698,-32.799 -3.336,-10.784 -5.601,-21.257 -6.789,-31.427 -1.191,-10.174 -0.256,-20.137 2.802,-29.902 1.029,-2.644 2.66,-5.086 4.887,-7.321 2.226,-2.241 4.76,-4.168 7.612,-5.799 2.845,-1.625 5.838,-2.898 8.974,-3.812 3.133,-0.916 5.921,-1.373 8.363,-1.373 6.713,0 11.589,2.287 14.633,6.864 3.038,4.577 5.289,10.222 6.748,16.934 1.456,6.713 2.471,14.035 3.039,21.967 0.567,7.934 1.631,15.256 3.19,21.969 2.029,6.507 4.244,13.73 6.642,21.663 2.398,7.934 5.135,15.914 8.215,23.952 3.076,8.032 6.642,15.814 10.692,23.341 4.052,7.522 8.727,14.188 14.034,19.985 5.302,5.797 11.261,10.474 17.878,14.036 6.615,3.556 14.089,5.338 22.433,5.338 3.457,0 6.436,-1.067 8.935,-3.203 2.501,-2.135 4.26,-4.835 5.279,-8.086 0.955,-3.05 1.284,-6.054 0.987,-9.001 -0.296,-2.95 -0.955,-6.053 -1.969,-9.305 -2.26,-7.733 -5.332,-15.461 -9.215,-23.189 -3.885,-7.733 -7.389,-15.714 -10.503,-23.952 -3.117,-8.237 -5.208,-16.833 -6.267,-25.781 -1.063,-8.954 -0.002,-18.513 3.182,-28.681 4.841,-15.462 13,-26.751 24.488,-33.867 11.481,-7.118 24.749,-10.68 39.804,-10.68 11.595,0 22.536,2.241 32.835,6.712 10.293,4.473 20.125,10.421 29.498,17.85 9.371,7.422 18.291,15.966 26.759,25.63 8.465,9.659 16.537,19.779 24.21,30.358 4.432,4.677 7.107,9.459 8.019,14.341 0.913,4.881 0.733,9.353 -0.541,13.424"
             style="fill:#53cbc8;fill-opacity:1;fill-rule:nonzero;stroke:none"
             id="path24" /></g><g
           id="g26"
           transform="translate(890.2515,437.8949)"><path
             d="m 0,0 c -60.046,0 -108.724,-48.678 -108.724,-108.724 h 0.002 c 10e-4,-0.076 -0.004,-0.15 0,-0.227 l 0.009,-0.17 c 0.151,-2.834 2.513,-5.046 5.352,-5.046 h 206.722 c 2.839,0 5.202,2.212 5.352,5.046 l 0.009,0.17 c 0.004,0.077 -10e-4,0.151 0,0.227 h 0.002 C 108.724,-48.678 60.046,0 0,0"
             style="fill:#53cbc8;fill-opacity:1;fill-rule:nonzero;stroke:none"
             id="path28" /></g><g
           id="g30"
           transform="translate(709.5562,207.7787)"><path
             d="m 0,0 c 0,-3.653 -2.962,-6.616 -6.617,-6.616 -3.654,0 -6.616,2.963 -6.616,6.616 0,3.654 2.962,6.617 6.616,6.617 C -2.962,6.617 0,3.654 0,0"
             style="fill:#e1147b;fill-opacity:1;fill-rule:nonzero;stroke:none"
             id="path32" /></g><g
           id="g34"
           transform="translate(986.4254,244.3871)"><path
             d="m 0,0 h -221.817 c -4.935,0 -8.067,-5.268 -5.733,-9.616 0.036,-0.069 0.073,-0.138 0.111,-0.206 1.134,-2.106 3.342,-3.411 5.733,-3.411 H -0.112 c 2.391,0 4.599,1.305 5.734,3.411 0.037,0.068 0.074,0.137 0.111,0.206 C 8.066,-5.268 4.934,0 0,0"
             style="fill:#e1147b;fill-opacity:1;fill-rule:nonzero;stroke:none"
             id="path36" /></g><g
           id="g38"
           transform="translate(1015.9029,304.3695)"><path
             d="m 0,0 h -251.302 c -3.746,0 -6.698,-3.151 -6.505,-6.892 0.004,-0.069 0.008,-0.138 0.012,-0.207 0.183,-3.445 3.054,-6.134 6.505,-6.134 H -0.012 c 3.45,0 6.322,2.689 6.505,6.134 C 6.497,-7.03 6.5,-6.961 6.504,-6.892 6.697,-3.151 3.746,0 0,0"
             style="fill:#e1147b;fill-opacity:1;fill-rule:nonzero;stroke:none"
             id="path40" /></g><g
           id="g42"
           transform="translate(921.275,154.4135)"><path
             d="m 0,0 h -113.25 c -6.88,0 -9.047,-9.25 -2.905,-12.349 0.138,-0.069 0.276,-0.138 0.414,-0.208 0.901,-0.45 1.898,-0.676 2.906,-0.676 h 112.42 c 1.008,0 2.005,0.226 2.906,0.676 0.138,0.07 0.276,0.139 0.414,0.208 C 9.047,-9.25 6.88,0 0,0"
             style="fill:#e1147b;fill-opacity:1;fill-rule:nonzero;stroke:none"
             id="path44" /></g><g
           id="g46"
           transform="translate(990.4722,184.4047)"><path
             d="m 0,0 h -113.25 c -6.88,0 -9.047,-9.249 -2.905,-12.349 0.138,-0.069 0.276,-0.138 0.414,-0.208 0.901,-0.45 1.898,-0.676 2.906,-0.676 h 112.42 c 1.007,0 2.005,0.226 2.906,0.676 0.138,0.07 0.276,0.139 0.413,0.208 C 9.046,-9.249 6.879,0 0,0"
             style="fill:#e1147b;fill-opacity:1;fill-rule:nonzero;stroke:none"
             id="path48" /></g><g
           id="g50"
           transform="translate(836.0469,203.2446)"><path
             d="m 0,0 c -0.064,0.068 -0.128,0.137 -0.193,0.205 -3.884,4.152 -0.906,10.946 4.779,10.946 h 183.808 c 5.686,0 8.663,-6.794 4.779,-10.946 C 193.109,0.137 193.045,0.068 192.981,0 191.74,-1.321 190.015,-2.082 188.203,-2.082 H 4.778 C 2.965,-2.082 1.241,-1.321 0,0"
             style="fill:#e1147b;fill-opacity:1;fill-rule:nonzero;stroke:none"
             id="path52" /></g><g
           id="g54"
           transform="translate(726.5723,214.3959)"><path
             d="m 0,0 h 87.773 c 6.88,0 9.047,-9.249 2.905,-12.349 -0.138,-0.069 -0.276,-0.138 -0.414,-0.207 -0.901,-0.451 -1.898,-0.677 -2.905,-0.677 H 0.415 c -1.007,0 -2.005,0.226 -2.906,0.677 -0.138,0.069 -0.276,0.138 -0.413,0.207 C -9.046,-9.249 -6.879,0 0,0"
             style="fill:#e1147b;fill-opacity:1;fill-rule:nonzero;stroke:none"
             id="path56" /></g><g
           id="g58"
           transform="translate(747.5889,297.7533)"><path
             d="m 0,0 c 0,-3.654 -2.962,-6.616 -6.617,-6.616 -3.654,0 -6.616,2.962 -6.616,6.616 0,3.654 2.962,6.616 6.616,6.616 C -2.962,6.616 0,3.654 0,0"
             style="fill:#e1147b;fill-opacity:1;fill-rule:nonzero;stroke:none"
             id="path60" /></g><g
           id="g62"
           transform="translate(903.5601,265.975)"><path
             d="M 0,0 C 0.019,0.068 0.037,0.138 0.056,0.206 1.175,4.339 -1.959,8.403 -6.24,8.403 h -183.832 c -4.282,0 -7.416,-4.064 -6.296,-8.197 0.018,-0.068 0.037,-0.138 0.056,-0.206 0.775,-2.846 3.346,-4.83 6.295,-4.83 H -6.295 c 2.949,0 5.519,1.984 6.295,4.83"
             style="fill:#e1147b;fill-opacity:1;fill-rule:nonzero;stroke:none"
             id="path64" /></g><g
           id="g66"
           transform="translate(696.4644,267.7621)"><path
             d="m 0,0 c 0,-3.654 -2.962,-6.617 -6.617,-6.617 -3.654,0 -6.616,2.963 -6.616,6.617 0,3.654 2.962,6.616 6.616,6.616 C -2.962,6.616 0,3.654 0,0"
             style="fill:#e1147b;fill-opacity:1;fill-rule:nonzero;stroke:none"
             id="path68" /></g><g
           id="g70"
           transform="translate(747.5889,237.7709)"><path
             d="m 0,0 c 0,-3.654 -2.962,-6.617 -6.617,-6.617 -3.654,0 -6.616,2.963 -6.616,6.617 0,3.654 2.962,6.616 6.616,6.616 C -2.962,6.616 0,3.654 0,0"
             style="fill:#e1147b;fill-opacity:1;fill-rule:nonzero;stroke:none"
             id="path72" /></g><g
           id="g74"
           transform="translate(860.2056,177.7875)"><path
             d="m 0,0 c 0,-3.654 -2.962,-6.616 -6.617,-6.616 -3.654,0 -6.616,2.962 -6.616,6.616 0,3.654 2.962,6.617 6.616,6.617 C -2.962,6.617 0,3.654 0,0"
             style="fill:#e1147b;fill-opacity:1;fill-rule:nonzero;stroke:none"
             id="path76" /></g><g
           id="g78"
           transform="translate(791.0089,147.7963)"><path
             d="m 0,0 c 0,-3.654 -2.962,-6.616 -6.617,-6.616 -3.654,0 -6.616,2.962 -6.616,6.616 0,3.654 2.962,6.617 6.616,6.617 C -2.962,6.617 0,3.654 0,0"
             style="fill:#e1147b;fill-opacity:1;fill-rule:nonzero;stroke:none"
             id="path80" /></g></g></g></g></svg>
