<svg width="1884" height="379" viewBox="0 0 1884 379" fill="none" xmlns="http://www.w3.org/2000/svg">
<path d="M0 364.046V0L232.015 189.309V14.056H323.422V378.119L91.407 187.281V364.046H0Z" fill="black"/>
<path d="M380.682 364.046V14.0559H633.783V99.921H476.093V154.152H619.21V234.999H476.093V364.046H380.682V364.046Z" fill="black"/>
<path d="M742.272 364.046V100.419H647.857V14.0559H930.087V100.419H837.683V364.046H742.272V364.046Z" fill="black"/>
<path d="M971.279 364.046V14.0559H1104.86C1134.48 14.0559 1161.1 24.6065 1184.2 45.6904C1207.3 66.7916 1218.85 94.4052 1218.85 128.05C1218.85 160.681 1207.3 187.797 1184.2 209.396C1161.6 230.995 1134.98 241.529 1104.86 241.529H1034.06V364.046H971.279ZM1034.06 184.772H1101.85C1129.98 184.772 1156.58 164.187 1156.58 128.033C1156.58 91.3809 1129.97 70.778 1101.85 70.778H1034.06V184.772Z" fill="black"/>
<path d="M1236.96 237.508C1236.96 199.842 1250.52 167.709 1277.14 142.106C1303.76 116.503 1336.39 103.444 1375.06 103.444C1413.72 103.444 1446.38 116.503 1472.99 142.106C1499.61 167.726 1513.17 199.859 1513.17 237.508C1513.17 275.174 1499.61 307.307 1472.99 332.91C1446.38 358.53 1413.74 371.572 1375.06 371.572C1336.39 371.572 1303.76 358.513 1277.14 332.91C1250.52 307.307 1236.96 275.174 1236.96 237.508ZM1430.81 294.247C1445.88 278.679 1453.4 260.104 1453.4 237.508C1453.4 214.912 1445.88 196.337 1430.81 181.267C1415.73 165.699 1397.16 158.173 1375.06 158.173C1352.46 158.173 1333.88 165.699 1318.81 181.267C1304.26 196.337 1296.71 214.912 1296.71 237.508C1296.71 260.104 1304.24 278.679 1318.81 294.247C1333.88 309.317 1352.46 316.843 1375.06 316.843C1397.16 316.843 1415.73 309.317 1430.81 294.247Z" fill="black"/>
<path d="M1555.36 364.046V110.97H1615.12V148.636C1627.16 122.019 1654.8 105.952 1690.44 105.952C1697.47 105.952 1703.5 106.451 1708.52 107.447V165.699C1700.99 164.187 1692.45 163.19 1683.41 163.19C1641.72 163.19 1615.12 189.292 1615.12 230.978V364.046H1555.36V364.046Z" fill="black"/>
<path d="M1768.3 364.046V165.699H1735.67V110.97H1768.3V14.0559H1828.57V110.97H1883.3V165.699H1828.57V364.046H1768.3V364.046Z" fill="black"/>
</svg>
