<svg width="2048" height="512" viewBox="0 0 2048 512" fill="none" xmlns="http://www.w3.org/2000/svg">
<path d="M857.84 256.026C857.84 265.593 856.85 274.764 854.868 283.541C852.887 292.22 850.014 300.356 846.25 307.95C842.584 315.544 838.077 322.546 832.728 328.956C827.378 335.268 821.286 340.84 814.45 345.672L868.985 404.844H835.997C831.242 404.844 826.932 404.203 823.069 402.921C819.305 401.639 815.837 399.272 812.667 395.821L781.165 361.205C776.113 362.586 770.912 363.621 765.563 364.311C760.312 365.002 754.814 365.347 749.069 365.347C732.822 365.347 717.963 362.635 704.49 357.211C691.117 351.688 679.625 344.045 670.016 334.282C660.506 324.518 653.126 312.98 647.876 299.666C642.625 286.254 640 271.707 640 256.026C640 240.346 642.625 225.849 647.876 212.535C653.126 199.123 660.506 187.535 670.016 177.771C679.625 168.008 691.117 160.414 704.49 154.99C717.963 149.467 732.822 146.706 749.069 146.706C765.315 146.706 780.125 149.467 793.499 154.99C806.872 160.513 818.314 168.156 827.824 177.919C837.334 187.584 844.714 199.123 849.965 212.535C855.215 225.849 857.84 240.346 857.84 256.026ZM816.828 256.026C816.828 244.291 815.243 233.788 812.073 224.517C809.002 215.148 804.544 207.209 798.699 200.7C792.855 194.192 785.722 189.211 777.302 185.759C768.98 182.308 759.569 180.582 749.069 180.582C738.568 180.582 729.107 182.308 720.687 185.759C712.267 189.211 705.085 194.192 699.141 200.7C693.296 207.209 688.789 215.148 685.619 224.517C682.449 233.788 680.864 244.291 680.864 256.026C680.864 267.762 682.449 278.315 685.619 287.684C688.789 296.954 693.296 304.843 699.141 311.352C705.085 317.763 712.267 322.694 720.687 326.145C729.107 329.597 738.568 331.323 749.069 331.323C759.569 331.323 768.98 329.597 777.302 326.145C785.722 322.694 792.855 317.763 798.699 311.352C804.544 304.843 809.002 296.954 812.073 287.684C815.243 278.315 816.828 267.762 816.828 256.026Z" fill="#10151B"/>
<path d="M909.047 211.203V307.654C909.047 316.924 911.177 324.124 915.437 329.252C919.796 334.282 926.284 336.796 934.903 336.796C941.243 336.796 947.187 335.416 952.734 332.654C958.282 329.794 963.532 325.899 968.485 320.968V211.203H1005.19V362.98H982.75C977.995 362.98 974.875 360.761 973.389 356.323L970.863 344.193C967.693 347.349 964.424 350.258 961.056 352.921C957.687 355.485 954.072 357.704 950.208 359.578C946.444 361.353 942.333 362.734 937.875 363.72C933.516 364.805 928.81 365.347 923.758 365.347C915.437 365.347 908.057 363.966 901.618 361.205C895.278 358.345 889.928 354.351 885.569 349.223C881.211 344.094 877.892 338.029 875.613 331.027C873.434 323.926 872.344 316.135 872.344 307.654V211.203H909.047Z" fill="#10151B"/>
<path d="M1071.57 211.203V362.98H1034.87V211.203H1071.57ZM1077.07 166.972C1077.07 170.128 1076.42 173.087 1075.13 175.848C1073.85 178.609 1072.11 181.026 1069.93 183.097C1067.85 185.168 1065.38 186.844 1062.5 188.126C1059.63 189.31 1056.56 189.902 1053.29 189.902C1050.12 189.902 1047.1 189.31 1044.23 188.126C1041.45 186.844 1039.03 185.168 1036.95 183.097C1034.87 181.026 1033.18 178.609 1031.89 175.848C1030.7 173.087 1030.11 170.128 1030.11 166.972C1030.11 163.718 1030.7 160.661 1031.89 157.801C1033.18 154.941 1034.87 152.475 1036.95 150.404C1039.03 148.333 1041.45 146.706 1044.23 145.522C1047.1 144.24 1050.12 143.599 1053.29 143.599C1056.56 143.599 1059.63 144.24 1062.5 145.522C1065.38 146.706 1067.85 148.333 1069.93 150.404C1072.11 152.475 1073.85 154.941 1075.13 157.801C1076.42 160.661 1077.07 163.718 1077.07 166.972Z" fill="#10151B"/>
<path d="M1208.42 243.304C1207.33 244.685 1206.24 245.77 1205.15 246.559C1204.16 247.348 1202.67 247.742 1200.69 247.742C1198.81 247.742 1196.98 247.2 1195.19 246.115C1193.41 244.932 1191.28 243.65 1188.81 242.269C1186.33 240.79 1183.36 239.508 1179.89 238.423C1176.52 237.239 1172.31 236.648 1167.26 236.648C1160.82 236.648 1155.17 237.831 1150.32 240.198C1145.46 242.466 1141.4 245.77 1138.13 250.109C1134.96 254.448 1132.59 259.725 1131 265.938C1129.42 272.052 1128.62 279.005 1128.62 286.796C1128.62 294.883 1129.47 302.082 1131.15 308.394C1132.93 314.705 1135.46 320.031 1138.73 324.37C1142 328.611 1145.96 331.865 1150.62 334.134C1155.27 336.303 1160.52 337.388 1166.37 337.388C1172.21 337.388 1176.92 336.698 1180.48 335.317C1184.15 333.838 1187.22 332.26 1189.7 330.583C1192.17 328.808 1194.3 327.23 1196.09 325.85C1197.97 324.37 1200.05 323.631 1202.33 323.631C1205.3 323.631 1207.53 324.765 1209.01 327.033L1219.56 340.347C1215.5 345.081 1211.09 349.075 1206.34 352.329C1201.58 355.485 1196.63 358.049 1191.48 360.021C1186.43 361.895 1181.18 363.227 1175.73 364.016C1170.28 364.805 1164.88 365.199 1159.53 365.199C1150.12 365.199 1141.25 363.473 1132.93 360.021C1124.61 356.471 1117.33 351.343 1111.09 344.637C1104.95 337.931 1100.04 329.745 1096.38 320.08C1092.81 310.317 1091.03 299.222 1091.03 286.796C1091.03 275.652 1092.61 265.346 1095.78 255.878C1099.05 246.312 1103.81 238.078 1110.05 231.174C1116.29 224.172 1124.02 218.699 1133.23 214.754C1142.44 210.809 1153.04 208.837 1165.03 208.837C1176.42 208.837 1186.38 210.661 1194.9 214.31C1203.52 217.959 1211.24 223.186 1218.08 229.991L1208.42 243.304Z" fill="#10151B"/>
<path d="M1268.17 143.156V269.044H1275.01C1277.49 269.044 1279.42 268.699 1280.8 268.009C1282.19 267.318 1283.68 266.036 1285.26 264.163L1323.15 217.565C1324.84 215.592 1326.62 214.063 1328.5 212.979C1330.39 211.795 1332.86 211.203 1335.93 211.203H1369.52L1322.11 267.565C1320.43 269.636 1318.7 271.559 1316.91 273.334C1315.13 275.011 1313.2 276.49 1311.12 277.772C1313.2 279.251 1315.03 280.977 1316.62 282.95C1318.2 284.922 1319.79 287.042 1321.37 289.311L1372.19 362.98H1339.05C1336.18 362.98 1333.75 362.487 1331.77 361.501C1329.79 360.515 1328.01 358.838 1326.42 356.471L1287.64 298.926C1286.15 296.658 1284.67 295.179 1283.18 294.488C1281.7 293.798 1279.47 293.453 1276.49 293.453H1268.17V362.98H1231.47V143.156H1268.17Z" fill="#10151B"/>
<path d="M1406.15 149.073C1407.93 149.073 1409.42 149.171 1410.6 149.369C1411.79 149.467 1412.83 149.763 1413.72 150.256C1414.71 150.651 1415.66 151.292 1416.55 152.179C1417.44 152.968 1418.43 154.053 1419.52 155.434L1532.3 298.482C1531.91 295.031 1531.61 291.678 1531.41 288.423C1531.31 285.07 1531.26 281.964 1531.26 279.104V149.073H1566.48V362.98H1545.83C1542.66 362.98 1540.03 362.487 1537.95 361.501C1535.87 360.515 1533.84 358.739 1531.86 356.175L1419.52 213.718C1419.82 216.874 1420.01 220.03 1420.11 223.186C1420.31 226.243 1420.41 229.054 1420.41 231.618V362.98H1385.19V149.073H1406.15Z" fill="#10151B"/>
<path d="M1660.94 208.837C1672.34 208.837 1682.64 210.661 1691.85 214.31C1701.16 217.959 1709.09 223.137 1715.63 229.843C1722.17 236.549 1727.22 244.734 1730.78 254.399C1734.35 264.064 1736.13 274.863 1736.13 286.796C1736.13 298.828 1734.35 309.676 1730.78 319.341C1727.22 329.005 1722.17 337.24 1715.63 344.045C1709.09 350.85 1701.16 356.077 1691.85 359.726C1682.64 363.375 1672.34 365.199 1660.94 365.199C1649.55 365.199 1639.2 363.375 1629.89 359.726C1620.58 356.077 1612.6 350.85 1605.96 344.045C1599.43 337.24 1594.32 329.005 1590.66 319.341C1587.09 309.676 1585.31 298.828 1585.31 286.796C1585.31 274.863 1587.09 264.064 1590.66 254.399C1594.32 244.734 1599.43 236.549 1605.96 229.843C1612.6 223.137 1620.58 217.959 1629.89 214.31C1639.2 210.661 1649.55 208.837 1660.94 208.837ZM1660.94 337.092C1673.62 337.092 1682.99 332.852 1689.03 324.37C1695.17 315.889 1698.24 303.463 1698.24 287.092C1698.24 270.721 1695.17 258.245 1689.03 249.665C1682.99 241.085 1673.62 236.795 1660.94 236.795C1648.07 236.795 1638.56 241.135 1632.41 249.813C1626.27 258.393 1623.2 270.819 1623.2 287.092C1623.2 303.364 1626.27 315.79 1632.41 324.37C1638.56 332.852 1648.07 337.092 1660.94 337.092Z" fill="#10151B"/>
<path d="M1860.17 362.98C1855.41 362.98 1852.29 360.761 1850.81 356.323L1847.84 341.678C1844.67 345.228 1841.35 348.434 1837.88 351.294C1834.41 354.154 1830.65 356.619 1826.59 358.69C1822.62 360.761 1818.31 362.339 1813.66 363.424C1809.1 364.607 1804.15 365.199 1798.8 365.199C1790.48 365.199 1782.85 363.473 1775.92 360.021C1768.98 356.57 1762.99 351.589 1757.94 345.081C1752.98 338.473 1749.12 330.337 1746.34 320.672C1743.67 311.007 1742.33 299.962 1742.33 287.536C1742.33 276.293 1743.87 265.839 1746.94 256.174C1750.01 246.51 1754.42 238.127 1760.16 231.026C1765.91 223.926 1772.79 218.403 1780.82 214.458C1788.84 210.415 1797.86 208.393 1807.86 208.393C1816.38 208.393 1823.66 209.774 1829.71 212.535C1835.75 215.198 1841.15 218.797 1845.9 223.334V143.156H1882.61V362.98H1860.17ZM1811.28 336.205C1818.91 336.205 1825.4 334.627 1830.75 331.471C1836.1 328.315 1841.15 323.828 1845.9 318.009V249.961C1841.74 244.932 1837.19 241.381 1832.23 239.31C1827.38 237.239 1822.13 236.204 1816.48 236.204C1810.93 236.204 1805.88 237.239 1801.32 239.31C1796.87 241.381 1793.05 244.537 1789.88 248.778C1786.81 252.92 1784.43 258.245 1782.75 264.754C1781.07 271.165 1780.22 278.758 1780.22 287.536C1780.22 296.411 1780.92 303.956 1782.3 310.169C1783.79 316.283 1785.87 321.313 1788.55 325.258C1791.22 329.104 1794.49 331.915 1798.35 333.69C1802.22 335.366 1806.53 336.205 1811.28 336.205Z" fill="#10151B"/>
<path d="M1973.49 208.837C1983.1 208.837 1991.92 210.365 1999.94 213.422C2008.06 216.48 2015.05 220.967 2020.89 226.884C2026.74 232.703 2031.29 239.902 2034.56 248.482C2037.83 256.963 2039.47 266.677 2039.47 277.624C2039.47 280.386 2039.32 282.703 2039.02 284.577C2038.82 286.352 2038.38 287.782 2037.68 288.867C2037.09 289.853 2036.25 290.593 2035.16 291.086C2034.07 291.48 2032.68 291.678 2031 291.678H1936.79C1937.88 307.26 1942.09 318.7 1949.42 325.998C1956.75 333.295 1966.46 336.944 1978.54 336.944C1984.49 336.944 1989.59 336.254 1993.85 334.873C1998.21 333.493 2001.97 331.964 2005.14 330.287C2008.41 328.611 2011.23 327.082 2013.61 325.702C2016.09 324.321 2018.47 323.631 2020.74 323.631C2022.23 323.631 2023.52 323.926 2024.61 324.518C2025.7 325.11 2026.64 325.948 2027.43 327.033L2038.13 340.347C2034.07 345.081 2029.51 349.075 2024.46 352.329C2019.41 355.485 2014.11 358.049 2008.56 360.021C2003.11 361.895 1997.51 363.227 1991.77 364.016C1986.12 364.805 1980.62 365.199 1975.27 365.199C1964.67 365.199 1954.82 363.473 1945.7 360.021C1936.59 356.471 1928.66 351.294 1921.93 344.489C1915.19 337.585 1909.89 329.104 1906.03 319.045C1902.17 308.887 1900.23 297.151 1900.23 283.837C1900.23 273.482 1901.92 263.768 1905.29 254.695C1908.65 245.523 1913.46 237.584 1919.7 230.878C1926.04 224.073 1933.72 218.699 1942.73 214.754C1951.85 210.809 1962.1 208.837 1973.49 208.837ZM1974.23 235.02C1963.53 235.02 1955.16 238.028 1949.12 244.044C1943.08 250.06 1939.21 258.591 1937.53 269.636H2006.48C2006.48 264.902 2005.83 260.464 2004.55 256.322C2003.26 252.082 2001.28 248.383 1998.6 245.227C1995.93 242.072 1992.56 239.606 1988.5 237.831C1984.44 235.957 1979.68 235.02 1974.23 235.02Z" fill="#10151B"/>
<g clip-path="url(#clip0_203_437)">
<path fill-rule="evenodd" clip-rule="evenodd" d="M256 416C299.463 416 338.879 398.669 367.714 370.542C368.505 369.771 369.77 369.77 370.551 370.551L437.019 437.019L506.009 506.009C507.502 507.501 505.965 509.988 503.963 509.321L393.862 472.621C393.292 472.43 392.667 472.507 392.158 472.827C352.721 497.644 306.037 512 256 512C114.615 512 0 397.385 0 256C0 114.615 114.615 -0.000305176 256 -0.000305176C397.385 -0.000305176 512 114.615 512 256C512 316.387 491.091 371.892 456.118 415.668C455.378 416.594 453.998 416.664 453.159 415.826L317.99 280.657C316.498 279.165 318.035 276.678 320.037 277.345L405.933 305.977C406.981 306.327 408.115 305.761 408.451 304.708C413.354 289.35 416 272.984 416 256C416 167.634 344.366 95.9997 256 95.9997C167.634 95.9997 96 167.634 96 256C96 344.365 167.634 416 256 416Z" fill="#009FD1"/>
</g>
<defs>
<clipPath id="clip0_203_437">
<rect width="512" height="512" fill="white"/>
</clipPath>
</defs>
</svg>
