<svg xmlns="http://www.w3.org/2000/svg" viewBox="0 0 840 230"><defs><style>.cls-1{fill:none;}</style></defs><g id="Layer_2" data-name="Layer 2"><g id="Layer_1-2" data-name="Layer 1"><rect class="cls-1" width="840" height="230"/><g id="logotext-group"><path d="M273.31,66.79c16.55,0,27.23,9.24,28.19,24.23H289.62c-.6-8.64-6.72-13.68-16.43-13.68-10.92,0-18,5.52-18,14,0,7,4,11.16,12.12,13.08l14.27,3.36c14.16,3.24,21.36,10.92,21.36,23.16,0,15.6-12.12,25.56-30.59,25.56-17.64,0-29.4-9.24-30.12-24.12h12c.24,8.28,7.2,13.56,18.12,13.56,11.51,0,18.83-5.4,18.83-14,0-6.84-3.72-11.16-12-13.08l-14.28-3.24c-14.16-3.24-21.48-11.4-21.48-23.88C243.43,76.87,255.43,66.79,273.31,66.79Z"/><path d="M315.79,155V66.79h11.28v38.63c3.72-6.36,10.79-10.68,19.91-10.68,15,0,22.2,9.48,22.2,24.48V155.1H357.9V121.74c0-11.88-5.64-16.68-14-16.68-10.92,0-16.79,7.92-16.79,18V155Z"/><path d="M440.7,96.42V155.1H430.38l-1-10.68c-4,7.56-11.52,12.24-21.24,12.24-17.27,0-27.23-13.44-27.23-31.32s10.8-30.6,27.59-30.6c9,0,17.52,4.08,21.36,12.48l.84-10.8Zm-30,8.64c-11.51,0-18.35,8.64-18.35,20.76s6.71,20.64,18.23,20.64,18.6-8.52,18.6-20.64S422.22,105.06,410.7,105.06Z"/><path d="M490.62,106.26h-5c-10.68,0-17.28,6.48-17.28,17.76V155.1H457V96.54h10.56l.72,8.88c2.4-6.12,8.28-10.2,16.32-10.2a27.22,27.22,0,0,1,6,.72Z"/><path d="M495.19,125.94c0-18,10.43-31.2,27.83-31.2,9,0,16.56,4,20.52,11.16V66.79H554.7V155.1H544.62l-1-10.68c-3.84,8-11.76,12.12-21.12,12.12C505.5,156.54,495.19,143.82,495.19,125.94Zm48.23-.36c0-12-7.08-20.64-18.6-20.64s-18.24,8.64-18.24,20.64,6.72,20.76,18.24,20.76S543.42,137.82,543.42,125.58Z"/><path d="M567.18,125.82c0-18.36,11.64-31.08,28.68-31.08,16.68,0,27.6,11.52,27.6,28.92v4.2L578.1,128c.84,12.36,7.32,19.2,18.48,19.2,8.76,0,14.52-3.6,16.44-10.32h10.56c-2.88,12.6-12.72,19.68-27.24,19.68C579.06,156.54,567.18,144.06,567.18,125.82Zm11.16-5.4h33.84c0-9.72-6.36-16.2-16.32-16.2S579.78,110.1,578.34,120.42Z"/><path d="M687.78,96.42V155.1H677.7l-1.2-8.88c-3.36,6.12-11.16,10.32-19.8,10.32-13.68,0-21.36-9.24-21.36-23.64V96.42h11.28v32.76c0,12.6,5.4,17.4,14,17.4,10.32,0,16-6.6,16-19.2v-31Z"/><path d="M704.1,155.1V96.42h10.08l1.08,7.68c3-5.52,9.24-9.36,17.52-9.36,9.12,0,15.6,4.56,18.6,11.88,2.76-7.32,9.84-11.88,19-11.88,13.44,0,21.6,8.4,21.6,22v38.4h-11V119.46c0-9.24-5.16-14.52-13.08-14.52-8.52,0-14.16,6-14.16,15.36v34.8H742.5V119.34c0-9.24-5-14.28-13-14.28-8.52,0-14.16,5.88-14.16,15.24v34.8Z"/></g><g id="triangle-group"><polygon class="cls-1" points="85.6 150 174.4 150 130 73.1 85.6 150"/><polygon points="85.6 150 67.13 182 192.87 182 174.4 150 85.6 150"/><polygon points="130 73.1 111.53 41.1 48.65 150 85.6 150 130 73.1"/><polygon points="174.4 150 211.35 150 148.47 41.1 130 73.1 174.4 150"/></g><circle id="circle-shape" cx="130" cy="124.5" r="20"/></g></g></svg>