<svg width="370" height="411" viewBox="0 0 370 411" fill="none" xmlns="http://www.w3.org/2000/svg">
<g clip-path="url(#clip0_0_3)">
<path d="M86.5071 82.6557H39.1052L134.261 287.149L128.444 299.922L120.342 317.341L-0.51796 57.487H102.516L171.869 206.549L158.014 236.344L86.5071 82.6557Z" fill="#5850EC"/>
<path d="M128.444 299.922L120.496 317.371L120.427 317.52L120.387 317.436L120.342 317.341L128.444 299.922Z" fill="#5850EC"/>
<path d="M120.495 317.371L120.426 317.52H120.258L120.387 317.436L120.495 317.371Z" fill="#322F2F"/>
<path d="M344.341 57.487L328.53 91.4797L316.82 116.648L223.386 317.5L223.376 317.52H186.037L197.727 292.352H207.054L288.639 116.648L300.329 91.4797L304.425 82.6557H257.445L159.772 292.605L160.174 292.352H169.546L157.836 317.52H120.427L120.496 317.371L128.444 299.922L158.014 236.344L171.869 206.549L241.202 57.487H344.341Z" fill="#322F2F"/>
<path d="M223.396 317.52H223.376L223.386 317.5L223.396 317.52Z" fill="#322F2F"/>
<path d="M262.988 91.4797L262.979 91.4981L262.97 91.4797H262.988Z" fill="#5850EC"/>
<path d="M128.444 299.922L120.496 317.371L120.427 317.52H120.258L120.342 317.341L128.444 299.922Z" fill="#322F2F"/>
<path d="M366.108 91.4797L245.164 351.513H142.025L157.836 317.52L169.546 292.352L262.98 91.4996L262.99 91.4797H300.329L288.639 116.648H279.311L197.727 292.352L186.037 317.52L181.941 326.344H228.921L326.594 116.395L326.192 116.648H316.82L328.53 91.4797H366.108Z" fill="#5850EC"/>
</g>
<defs>
<clipPath id="clip0_0_3">
<rect width="370" height="410.48" fill="white"/>
</clipPath>
</defs>
</svg>
