<svg width="56" height="56" viewBox="0 0 56 56" fill="none" xmlns="http://www.w3.org/2000/svg">
<mask id="mask0_893_2479" style="mask-type:alpha" maskUnits="userSpaceOnUse" x="8" y="34" width="43" height="13">
<path d="M8.10352 34.1235H50.2682V46.1447H8.10352V34.1235Z" fill="white"/>
</mask>
<g mask="url(#mask0_893_2479)">
<path fill-rule="evenodd" clip-rule="evenodd" d="M19.5376 45.4248C15.9527 45.4248 12.398 44.1547 9.35892 41.7182L8.82324 41.2876L14.3053 35.0978C14.4206 34.9677 14.5828 34.8886 14.7563 34.8781C14.9298 34.8676 15.1004 34.9264 15.2305 35.0416C15.3607 35.1569 15.4397 35.3191 15.4502 35.4926C15.4607 35.6661 15.4019 35.8367 15.2867 35.9668L10.7255 41.1156C14.5559 43.9401 19.1812 44.8221 23.5177 43.5326L28.8248 41.9522L34.132 43.5326C38.4664 44.8221 43.0909 43.9401 46.922 41.1177L42.3032 35.9352C42.1877 35.8053 42.1285 35.6349 42.1386 35.4614C42.1488 35.2879 42.2274 35.1255 42.3572 35.01C42.4871 34.8944 42.6575 34.8352 42.831 34.8454C43.0045 34.8555 43.1669 34.9341 43.2824 35.064L48.8279 41.2869L48.29 41.7189C44.0161 45.1461 38.7198 46.265 33.7583 44.7883L28.8248 43.3202L23.8914 44.789C22.4786 45.2107 21.012 45.4251 19.5376 45.4255" fill="black"/>
<path d="M19.5376 45.4248C15.9527 45.4248 12.398 44.1547 9.35892 41.7182L8.82324 41.2876L14.3053 35.0978C14.4206 34.9677 14.5828 34.8886 14.7563 34.8781C14.9298 34.8676 15.1004 34.9264 15.2305 35.0416C15.3607 35.1569 15.4397 35.3191 15.4502 35.4926C15.4607 35.6661 15.4019 35.8367 15.2867 35.9668L10.7255 41.1156C14.5559 43.9401 19.1812 44.8221 23.5177 43.5326L28.8248 41.9522L34.132 43.5326C38.4664 44.8221 43.0909 43.9401 46.922 41.1177L42.3032 35.9352C42.1877 35.8053 42.1285 35.6349 42.1386 35.4614C42.1488 35.2879 42.2274 35.1255 42.3572 35.01C42.4871 34.8944 42.6575 34.8352 42.831 34.8454C43.0045 34.8555 43.1669 34.9341 43.2824 35.064L48.8279 41.2869L48.29 41.7189C44.0161 45.1461 38.7198 46.265 33.7583 44.7883L28.8248 43.3202L23.8914 44.789C22.4786 45.2107 21.012 45.4251 19.5376 45.4255" stroke="black" stroke-linejoin="round"/>
</g>
<path fill-rule="evenodd" clip-rule="evenodd" d="M28.8245 42.6699L18.0267 36.439C16.8289 35.5706 15.8574 34.427 15.1942 33.1045C14.5309 31.782 14.1954 30.3195 14.2157 28.8402L14.3072 22.4624L18.625 23.8808C18.7081 23.9064 18.7853 23.9483 18.852 24.0041C18.9187 24.0599 18.9736 24.1284 19.0136 24.2056C19.0535 24.2828 19.0777 24.3672 19.0846 24.4539C19.0916 24.5406 19.0812 24.6278 19.0541 24.7104C19.027 24.793 18.9836 24.8694 18.9267 24.9351C18.8697 25.0008 18.8002 25.0545 18.7222 25.093C18.6443 25.1315 18.5594 25.1541 18.4726 25.1595C18.3859 25.1649 18.2989 25.1529 18.2168 25.1242L15.5916 24.2631L15.5254 28.8589C15.5081 30.1224 15.7935 31.3717 16.3577 32.5024C16.9218 33.633 17.7484 34.6123 18.7683 35.3583L28.8288 41.1601L39.0096 35.3569C40.0345 34.6119 40.8653 33.6316 41.4321 32.4985C41.999 31.3655 42.2853 30.1128 42.2669 28.8459L42.2021 24.2545L39.2105 25.2085C39.045 25.2613 38.8652 25.2462 38.7108 25.1664C38.5564 25.0867 38.44 24.9489 38.3872 24.7833C38.3344 24.6178 38.3495 24.438 38.4293 24.2836C38.509 24.1292 38.6468 24.0128 38.8124 23.96L43.4873 22.4703L43.5766 28.8279C43.5976 30.3109 43.2604 31.777 42.5939 33.1019C41.9273 34.4268 40.9509 35.5713 39.7476 36.4383L39.6893 36.4758L28.8238 42.6692L28.8245 42.6699Z" fill="black" stroke="black" stroke-linecap="round" stroke-linejoin="round"/>
<path fill-rule="evenodd" clip-rule="evenodd" d="M28.8536 32.2652L19.7471 27.0596L28.8536 39.9332L37.76 27.0596L28.8536 32.2652Z" fill="black"/>
<path fill-rule="evenodd" clip-rule="evenodd" d="M28.8534 10L20.0312 24.7175L28.8354 30.0599L37.7605 24.7895L28.8534 10Z" fill="black"/>
<mask id="mask1_893_2479" style="mask-type:alpha" maskUnits="userSpaceOnUse" x="5" y="27" width="9" height="11">
<path d="M5 27.2354H13.8776V37.4961H5V27.2354Z" fill="white"/>
</mask>
<g mask="url(#mask1_893_2479)">
<path fill-rule="evenodd" clip-rule="evenodd" d="M10.6474 36.776C10.4991 36.7757 10.3552 36.7252 10.2393 36.6326C10.1234 36.54 10.0424 36.4108 10.0095 36.2662C9.57461 34.3546 8.34629 32.3163 6.45845 30.3708L5.71973 29.612L6.72989 29.2908C8.95829 28.5824 10.9059 28.4859 12.6836 28.9992C12.8505 29.0474 12.9914 29.1598 13.0754 29.3118C13.1594 29.4639 13.1795 29.6431 13.1314 29.81C13.0833 29.9769 12.9708 30.1178 12.8188 30.2018C12.6668 30.2858 12.4876 30.3059 12.3207 30.2578C11.0463 29.8906 9.69701 29.8877 8.13461 30.2578C9.77621 32.137 10.8598 34.0976 11.2875 35.976C11.3088 36.0721 11.3083 36.1716 11.2861 36.2674C11.2638 36.3632 11.2203 36.4528 11.1588 36.5296C11.0973 36.6064 11.0194 36.6683 10.9307 36.711C10.8421 36.7536 10.745 36.7758 10.6467 36.776" fill="black"/>
<path d="M10.6474 36.776C10.4991 36.7757 10.3552 36.7252 10.2393 36.6326C10.1234 36.54 10.0424 36.4108 10.0095 36.2662C9.57461 34.3546 8.34629 32.3163 6.45845 30.3708L5.71973 29.612L6.72989 29.2908C8.95829 28.5824 10.9059 28.4859 12.6836 28.9992C12.8505 29.0474 12.9914 29.1598 13.0754 29.3118C13.1594 29.4639 13.1795 29.6431 13.1314 29.81C13.0833 29.9769 12.9708 30.1178 12.8188 30.2018C12.6668 30.2858 12.4876 30.3059 12.3207 30.2578C11.0463 29.8906 9.69701 29.8877 8.13461 30.2578C9.77621 32.137 10.8598 34.0976 11.2875 35.976C11.3088 36.0721 11.3083 36.1716 11.2861 36.2674C11.2638 36.3632 11.2203 36.4528 11.1588 36.5296C11.0973 36.6064 11.0194 36.6683 10.9307 36.711C10.8421 36.7536 10.745 36.7758 10.6467 36.776" stroke="black" stroke-linecap="round" stroke-linejoin="round"/>
</g>
<path fill-rule="evenodd" clip-rule="evenodd" d="M47.0691 36.776C46.9707 36.7759 46.8736 36.7537 46.7849 36.711C46.6963 36.6683 46.6184 36.6062 46.557 36.5293C46.4956 36.4525 46.4523 36.3627 46.4302 36.2668C46.4082 36.1709 46.4081 36.0713 46.4298 35.9753C46.8582 34.0968 47.9418 32.137 49.5826 30.2578C48.0202 29.8877 46.6717 29.8906 45.3966 30.2578C45.314 30.2818 45.2275 30.2892 45.142 30.2797C45.0565 30.2701 44.9738 30.2438 44.8985 30.2022C44.8233 30.1605 44.757 30.1045 44.7034 30.0372C44.6499 29.9699 44.6102 29.8927 44.5866 29.81C44.5626 29.7274 44.5551 29.6409 44.5645 29.5555C44.574 29.4701 44.6002 29.3873 44.6416 29.312C44.6831 29.2367 44.739 29.1703 44.8061 29.1167C44.8733 29.063 44.9504 29.0231 45.033 28.9992C46.8114 28.4859 48.7597 28.5824 50.9874 29.2908L51.9975 29.612L51.2595 30.3708C49.371 32.3156 48.1434 34.3539 47.7078 36.2662C47.6748 36.4108 47.5938 36.54 47.4779 36.6326C47.3621 36.7252 47.2182 36.7757 47.0698 36.776" fill="black"/>
<path d="M47.0691 36.776C46.9707 36.7759 46.8736 36.7537 46.7849 36.711C46.6963 36.6683 46.6184 36.6062 46.557 36.5293C46.4956 36.4525 46.4523 36.3627 46.4302 36.2668C46.4082 36.1709 46.4081 36.0713 46.4298 35.9753C46.8582 34.0968 47.9418 32.137 49.5826 30.2578C48.0202 29.8877 46.6717 29.8906 45.3966 30.2578C45.314 30.2818 45.2275 30.2892 45.142 30.2797C45.0565 30.2701 44.9738 30.2438 44.8985 30.2022C44.8233 30.1605 44.757 30.1045 44.7034 30.0372C44.6499 29.9699 44.6102 29.8927 44.5866 29.81C44.5626 29.7274 44.5551 29.6409 44.5645 29.5555C44.574 29.4701 44.6002 29.3873 44.6416 29.312C44.6831 29.2367 44.739 29.1703 44.8061 29.1167C44.8733 29.063 44.9504 29.0231 45.033 28.9992C46.8114 28.4859 48.7597 28.5824 50.9874 29.2908L51.9975 29.612L51.2595 30.3708C49.371 32.3156 48.1434 34.3539 47.7078 36.2662C47.6748 36.4108 47.5938 36.54 47.4779 36.6326C47.3621 36.7252 47.2182 36.7757 47.0698 36.776" stroke="black"/>
<path fill-rule="evenodd" clip-rule="evenodd" d="M18.4067 22.5545C18.3145 22.5547 18.2232 22.5353 18.139 22.4978C18.0547 22.4602 17.9793 22.4053 17.9178 22.3365C17.8563 22.2678 17.81 22.1868 17.7819 22.0989C17.7539 22.0111 17.7448 21.9182 17.7551 21.8266L18.2764 17.166L21.5416 19.3923C21.6807 19.4918 21.7754 19.6419 21.8054 19.8104C21.8353 19.9789 21.7982 20.1524 21.7019 20.2938C21.6056 20.4353 21.4578 20.5334 21.29 20.5673C21.1223 20.6012 20.948 20.5681 20.8043 20.4751L19.3362 19.4743L19.0569 21.972C19.039 22.132 18.9628 22.2799 18.8429 22.3873C18.723 22.4947 18.5677 22.5543 18.4067 22.5545" fill="black"/>
<path d="M18.4067 22.5545C18.3145 22.5547 18.2232 22.5353 18.139 22.4978C18.0547 22.4602 17.9793 22.4053 17.9178 22.3365C17.8563 22.2678 17.81 22.1868 17.7819 22.0989C17.7539 22.0111 17.7448 21.9182 17.7551 21.8266L18.2764 17.166L21.5416 19.3923C21.6807 19.4918 21.7754 19.6419 21.8054 19.8104C21.8353 19.9789 21.7982 20.1524 21.7019 20.2938C21.6056 20.4353 21.4578 20.5334 21.29 20.5673C21.1223 20.6012 20.948 20.5681 20.8043 20.4751L19.3362 19.4743L19.0569 21.972C19.039 22.132 18.9628 22.2799 18.8429 22.3873C18.723 22.4947 18.5677 22.5543 18.4067 22.5545" stroke="black" stroke-linejoin="round"/>
<path fill-rule="evenodd" clip-rule="evenodd" d="M39.0923 22.5547C38.9331 22.5545 38.7795 22.4963 38.6602 22.3909C38.5409 22.2855 38.4641 22.1402 38.4443 21.9823L38.1232 19.4644L36.6414 20.4753C36.4978 20.5732 36.3212 20.61 36.1505 20.5776C35.9797 20.5453 35.8288 20.4465 35.731 20.3029C35.6331 20.1593 35.5963 19.9827 35.6286 19.8119C35.661 19.6412 35.7598 19.4903 35.9034 19.3924L39.1535 17.1763L39.7432 21.8174C39.7548 21.9097 39.7467 22.0034 39.7193 22.0924C39.6919 22.1813 39.6459 22.2633 39.5843 22.3331C39.5227 22.4028 39.447 22.4587 39.3622 22.4969C39.2773 22.5351 39.1853 22.5548 39.0923 22.5547" fill="black"/>
<path d="M39.0923 22.5547C38.9331 22.5545 38.7795 22.4963 38.6602 22.3909C38.5409 22.2855 38.4641 22.1402 38.4443 21.9823L38.1232 19.4644L36.6414 20.4753C36.4978 20.5732 36.3212 20.61 36.1505 20.5776C35.9797 20.5453 35.8288 20.4465 35.731 20.3029C35.6331 20.1593 35.5963 19.9827 35.6286 19.8119C35.661 19.6412 35.7598 19.4903 35.9034 19.3924L39.1535 17.1763L39.7432 21.8174C39.7548 21.9097 39.7467 22.0034 39.7193 22.0924C39.6919 22.1813 39.6459 22.2633 39.5843 22.3331C39.5227 22.4028 39.447 22.4587 39.3622 22.4969C39.2773 22.5351 39.1853 22.5548 39.0923 22.5547" stroke="black" stroke-linecap="round" stroke-linejoin="round"/>
</svg>
